<mxfile host="65bd71144e">
    <diagram id="avuX6tN8_coUhezxWiyo" name="Page-1">
        <mxGraphModel dx="819" dy="435" grid="1" gridSize="10" guides="1" tooltips="1" connect="1" arrows="0" fold="1" page="1" pageScale="1" pageWidth="827" pageHeight="1169" math="0" shadow="0">
            <root>
                <mxCell id="0"/>
                <mxCell id="1" parent="0"/>
                <mxCell id="2" value="&lt;b&gt;PROGETTO LARAVEL&lt;/b&gt;&lt;font color=&quot;#ffff00&quot;&gt;&lt;br&gt;&lt;/font&gt;" style="rounded=0;whiteSpace=wrap;html=1;" parent="1" vertex="1">
                    <mxGeometry x="250" y="40" width="390" height="40" as="geometry"/>
                </mxCell>
                <mxCell id="8" value="&lt;h1&gt;passaggi relazione&lt;/h1&gt;&lt;div&gt;creare Model + migration &lt;font color=&quot;#ffff00&quot;&gt;php artisan make:model Category -m&lt;/font&gt;&lt;/div&gt;&lt;div&gt;edito la migration e la lancio &lt;font color=&quot;#ffff00&quot;&gt;php artisan migrate&lt;/font&gt;&lt;/div&gt;&lt;div&gt;&lt;font color=&quot;#ffff00&quot;&gt;&lt;br&gt;&lt;/font&gt;&lt;/div&gt;&lt;div&gt;creare il seeder &lt;font color=&quot;#ffff00&quot;&gt;php artisan make:seeder CategoriesSeeder&lt;/font&gt;&lt;/div&gt;&lt;div&gt;importa nel seeder il model e&lt;font color=&quot;#ffff00&quot;&gt;&amp;nbsp;&lt;/font&gt;&lt;span&gt;popola il seeder&amp;nbsp;&lt;/span&gt;&lt;/div&gt;&lt;div&gt;lancia il seeder &lt;font color=&quot;#ffff00&quot;&gt;php artisan db:seed --class CategoriesSeeder&lt;/font&gt;&lt;/div&gt;&lt;div&gt;&lt;font color=&quot;#ffff00&quot;&gt;&lt;br&gt;&lt;/font&gt;&lt;/div&gt;&lt;div&gt;creare una migration di update&lt;/div&gt;&lt;div&gt;&lt;font color=&quot;#ffff00&quot;&gt;php artisan make:migration update_cars_table_add_foreignkey --table=cars&lt;/font&gt;&lt;/div&gt;&lt;div&gt;&lt;font color=&quot;#ffff00&quot;&gt;&lt;br&gt;&lt;/font&gt;&lt;/div&gt;&lt;div&gt;aggiungo nello schema&amp;nbsp;&lt;/div&gt;&lt;div&gt;creiamo un campo unsignedBigInteger che si chiama category_id&amp;nbsp;&lt;/div&gt;&lt;div&gt;&lt;br&gt;&lt;/div&gt;&lt;div&gt;la tabella ha una foreign key che è il campo appena creato&lt;/div&gt;&lt;div&gt;&lt;br&gt;&lt;/div&gt;&lt;div&gt;reference = la tabella si collega all'id della tabella (on) cars&amp;nbsp;&lt;/div&gt;&lt;div&gt;&lt;br&gt;&lt;/div&gt;&lt;div&gt;FORMA ABBREVIATA&amp;nbsp;&lt;/div&gt;&lt;div&gt;&lt;div style=&quot;color: rgb(212 , 212 , 212) ; background-color: rgb(30 , 30 , 30) ; font-family: &amp;#34;consolas&amp;#34; , &amp;#34;courier new&amp;#34; , monospace ; font-size: 14px ; line-height: 19px&quot;&gt;&lt;span style=&quot;color: #9cdcfe&quot;&gt;$table&lt;/span&gt;-&amp;gt;&lt;span style=&quot;color: #dcdcaa&quot;&gt;foreignId&lt;/span&gt;(&lt;span style=&quot;color: #ce9178&quot;&gt;'category_id'&lt;/span&gt;)-&amp;gt;&lt;span style=&quot;color: #dcdcaa&quot;&gt;constrained&lt;/span&gt;();&lt;/div&gt;&lt;/div&gt;&lt;div&gt;&lt;br&gt;&lt;/div&gt;&lt;div&gt;Cancellazzione collegamenti&lt;/div&gt;&lt;div&gt;&lt;div style=&quot;color: rgb(212 , 212 , 212) ; background-color: rgb(30 , 30 , 30) ; font-family: &amp;#34;consolas&amp;#34; , &amp;#34;courier new&amp;#34; , monospace ; font-size: 14px ; line-height: 19px&quot;&gt;-&amp;gt;&lt;span style=&quot;color: #dcdcaa&quot;&gt;cascadeOnDelete&lt;/span&gt;();&lt;/div&gt;&lt;/div&gt;&lt;div&gt;cancellato campo tabella principale cancella anche gli elementi ad esso collegati&lt;/div&gt;&lt;div&gt;&lt;br&gt;&lt;/div&gt;&lt;div&gt;&lt;div style=&quot;color: rgb(212 , 212 , 212) ; background-color: rgb(30 , 30 , 30) ; font-family: &amp;#34;consolas&amp;#34; , &amp;#34;courier new&amp;#34; , monospace ; font-size: 14px ; line-height: 19px&quot;&gt;&lt;span style=&quot;color: #dcdcaa&quot;&gt;-&amp;gt;onDelete&lt;/span&gt;(&lt;span style=&quot;color: #ce9178&quot;&gt;'set null'&lt;/span&gt;);&lt;/div&gt;&lt;/div&gt;&lt;div&gt;cancello e rendo il campo null facendo così devo avere il campo che può essere nullable()&lt;/div&gt;&lt;div&gt;&lt;span style=&quot;background-color: rgb(30 , 30 , 30)&quot;&gt;&lt;span style=&quot;font-family: &amp;#34;consolas&amp;#34; , &amp;#34;courier new&amp;#34; , monospace ; font-size: 14px ; color: rgb(156 , 220 , 254)&quot;&gt;$table&lt;/span&gt;&lt;span style=&quot;color: rgb(212 , 212 , 212) ; font-family: &amp;#34;consolas&amp;#34; , &amp;#34;courier new&amp;#34; , monospace ; font-size: 14px&quot;&gt;-&amp;gt;&lt;/span&gt;&lt;span style=&quot;font-family: &amp;#34;consolas&amp;#34; , &amp;#34;courier new&amp;#34; , monospace ; font-size: 14px ; color: rgb(220 , 220 , 170)&quot;&gt;foreignId&lt;/span&gt;&lt;span style=&quot;color: rgb(212 , 212 , 212) ; font-family: &amp;#34;consolas&amp;#34; , &amp;#34;courier new&amp;#34; , monospace ; font-size: 14px&quot;&gt;(&lt;/span&gt;&lt;span style=&quot;font-family: &amp;#34;consolas&amp;#34; , &amp;#34;courier new&amp;#34; , monospace ; font-size: 14px ; color: rgb(206 , 145 , 120)&quot;&gt;'category_id'&lt;/span&gt;&lt;span style=&quot;color: rgb(212 , 212 , 212) ; font-family: &amp;#34;consolas&amp;#34; , &amp;#34;courier new&amp;#34; , monospace ; font-size: 14px&quot;&gt;)-&amp;gt;&lt;/span&gt;&lt;span style=&quot;font-family: &amp;#34;consolas&amp;#34; , &amp;#34;courier new&amp;#34; , monospace ; font-size: 14px ; color: rgb(220 , 220 , 170)&quot;&gt;nullable&lt;/span&gt;&lt;span style=&quot;color: rgb(212 , 212 , 212) ; font-family: &amp;#34;consolas&amp;#34; , &amp;#34;courier new&amp;#34; , monospace ; font-size: 14px&quot;&gt;()-&amp;gt;&lt;/span&gt;&lt;span style=&quot;font-family: &amp;#34;consolas&amp;#34; , &amp;#34;courier new&amp;#34; , monospace ; font-size: 14px ; color: rgb(220 , 220 , 170)&quot;&gt;constrained&lt;/span&gt;&lt;span style=&quot;color: rgb(212 , 212 , 212) ; font-family: &amp;#34;consolas&amp;#34; , &amp;#34;courier new&amp;#34; , monospace ; font-size: 14px&quot;&gt;()-&amp;gt;&lt;/span&gt;&lt;span style=&quot;font-family: &amp;#34;consolas&amp;#34; , &amp;#34;courier new&amp;#34; , monospace ; font-size: 14px ; color: rgb(220 , 220 , 170)&quot;&gt;onDelete&lt;/span&gt;&lt;span style=&quot;color: rgb(212 , 212 , 212) ; font-family: &amp;#34;consolas&amp;#34; , &amp;#34;courier new&amp;#34; , monospace ; font-size: 14px&quot;&gt;(&lt;/span&gt;&lt;span style=&quot;font-family: &amp;#34;consolas&amp;#34; , &amp;#34;courier new&amp;#34; , monospace ; font-size: 14px ; color: rgb(206 , 145 , 120)&quot;&gt;'set null'&lt;/span&gt;&lt;span style=&quot;color: rgb(212 , 212 , 212) ; font-family: &amp;#34;consolas&amp;#34; , &amp;#34;courier new&amp;#34; , monospace ; font-size: 14px&quot;&gt;);&lt;/span&gt;&lt;br&gt;&lt;/span&gt;&lt;/div&gt;&lt;div&gt;&lt;br&gt;&lt;/div&gt;&lt;div&gt;aggiungere funzione hai Model per dichiarare tipo di relazione&amp;nbsp;&lt;/div&gt;&lt;span style=&quot;color: rgb(255 , 255 , 0)&quot;&gt;hasMany() e&amp;nbsp;&lt;/span&gt;&lt;font color=&quot;#ffff00&quot;&gt;belongsTo()&lt;/font&gt;&lt;br&gt;&lt;br&gt;nel controller della tabella principale importare Model tabella secondaria&lt;br&gt;&lt;br&gt;modificare la create passandogli tutti gli elementi della tabella secondaria&lt;br&gt;&lt;div style=&quot;color: rgb(212 , 212 , 212) ; background-color: rgb(30 , 30 , 30) ; font-family: &amp;#34;consolas&amp;#34; , &amp;#34;courier new&amp;#34; , monospace ; font-size: 14px ; line-height: 19px&quot;&gt;&lt;div&gt;&lt;span style=&quot;color: #569cd6&quot;&gt;public&lt;/span&gt; &lt;span style=&quot;color: #569cd6&quot;&gt;function&lt;/span&gt; &lt;span style=&quot;color: #dcdcaa&quot;&gt;create&lt;/span&gt;()&lt;/div&gt;&lt;div&gt;&amp;nbsp; &amp;nbsp; {&lt;/div&gt;&lt;div&gt;&amp;nbsp; &amp;nbsp; &amp;nbsp; &amp;nbsp; &lt;span style=&quot;color: #9cdcfe&quot;&gt;$categories&lt;/span&gt; = &lt;span style=&quot;color: #4ec9b0&quot;&gt;Category&lt;/span&gt;::&lt;span style=&quot;color: #dcdcaa&quot;&gt;all&lt;/span&gt;();&lt;/div&gt;&lt;div&gt;&amp;nbsp; &amp;nbsp; &amp;nbsp; &amp;nbsp; &lt;span style=&quot;color: #c586c0&quot;&gt;return&lt;/span&gt; &lt;span style=&quot;color: #dcdcaa&quot;&gt;view&lt;/span&gt;(&lt;span style=&quot;color: #ce9178&quot;&gt;'admin.cars.create'&lt;/span&gt;, &lt;span style=&quot;color: #dcdcaa&quot;&gt;compact&lt;/span&gt;(&lt;span style=&quot;color: #ce9178&quot;&gt;'categories'&lt;/span&gt;));&lt;/div&gt;&lt;div&gt;&amp;nbsp; &amp;nbsp; }&lt;/div&gt;&lt;/div&gt;&lt;div&gt;&amp;nbsp;&lt;/div&gt;&lt;div&gt;nella view create aggiungere il campo category_id e ciclarlo con un forEach()&lt;/div&gt;&lt;div&gt;&lt;div style=&quot;color: rgb(212 , 212 , 212) ; background-color: rgb(30 , 30 , 30) ; font-family: &amp;#34;consolas&amp;#34; , &amp;#34;courier new&amp;#34; , monospace ; font-size: 14px ; line-height: 19px&quot;&gt;&lt;div&gt;&lt;span style=&quot;color: #808080&quot;&gt;&amp;lt;&lt;/span&gt;&lt;span style=&quot;color: #569cd6&quot;&gt;div&lt;/span&gt; &lt;span style=&quot;color: #9cdcfe&quot;&gt;class&lt;/span&gt;=&lt;span style=&quot;color: #ce9178&quot;&gt;&quot;mb-3&quot;&lt;/span&gt;&lt;span style=&quot;color: #808080&quot;&gt;&amp;gt;&lt;/span&gt;&lt;/div&gt;&lt;div&gt;&amp;nbsp; &amp;nbsp; &amp;nbsp; &lt;span style=&quot;color: #808080&quot;&gt;&amp;lt;&lt;/span&gt;&lt;span style=&quot;color: #569cd6&quot;&gt;label&lt;/span&gt; &lt;span style=&quot;color: #9cdcfe&quot;&gt;for&lt;/span&gt;=&lt;span style=&quot;color: #ce9178&quot;&gt;&quot;category&quot;&lt;/span&gt; &lt;span style=&quot;color: #9cdcfe&quot;&gt;class&lt;/span&gt;=&lt;span style=&quot;color: #ce9178&quot;&gt;&quot;form-label&quot;&lt;/span&gt;&lt;span style=&quot;color: #808080&quot;&gt;&amp;gt;&lt;/span&gt;category&lt;span style=&quot;color: #808080&quot;&gt;&amp;lt;/&lt;/span&gt;&lt;span style=&quot;color: #569cd6&quot;&gt;label&lt;/span&gt;&lt;span style=&quot;color: #808080&quot;&gt;&amp;gt;&lt;/span&gt;&lt;/div&gt;&lt;div&gt;&amp;nbsp; &amp;nbsp; &amp;nbsp; &lt;span style=&quot;color: #808080&quot;&gt;&amp;lt;&lt;/span&gt;&lt;span style=&quot;color: #569cd6&quot;&gt;select&lt;/span&gt; &lt;span style=&quot;color: #9cdcfe&quot;&gt;name&lt;/span&gt;=&lt;span style=&quot;color: #ce9178&quot;&gt;&quot;category_id&quot;&lt;/span&gt; &lt;span style=&quot;color: #9cdcfe&quot;&gt;id&lt;/span&gt;=&lt;span style=&quot;color: #ce9178&quot;&gt;&quot;category_id&quot;&lt;/span&gt;&lt;span style=&quot;color: #808080&quot;&gt;&amp;gt;&lt;/span&gt;&lt;/div&gt;&lt;div&gt;&amp;nbsp; &amp;nbsp; &amp;nbsp; &amp;nbsp; &lt;span style=&quot;color: #569cd6&quot;&gt;@foreach &lt;/span&gt;(&lt;span style=&quot;color: #9cdcfe&quot;&gt;$categories&lt;/span&gt; as &lt;span style=&quot;color: #9cdcfe&quot;&gt;$category&lt;/span&gt;)&lt;/div&gt;&lt;div&gt;&amp;nbsp; &amp;nbsp; &amp;nbsp; &amp;nbsp; &amp;nbsp; &lt;span style=&quot;color: #808080&quot;&gt;&amp;lt;&lt;/span&gt;&lt;span style=&quot;color: #569cd6&quot;&gt;option&lt;/span&gt; &lt;span style=&quot;color: #9cdcfe&quot;&gt;value&lt;/span&gt;=&lt;span style=&quot;color: #ce9178&quot;&gt;&quot;&lt;/span&gt;&lt;span style=&quot;color: #dcdcaa&quot;&gt;{{&lt;/span&gt;&lt;span style=&quot;color: #9cdcfe&quot;&gt;$category&lt;/span&gt;-&amp;gt;&lt;span style=&quot;color: #9cdcfe&quot;&gt;id&lt;/span&gt;&lt;span style=&quot;color: #dcdcaa&quot;&gt;}}&lt;/span&gt;&lt;span style=&quot;color: #ce9178&quot;&gt;&quot;&lt;/span&gt;&lt;span style=&quot;color: #808080&quot;&gt;&amp;gt;&lt;/span&gt;&lt;span style=&quot;color: #dcdcaa&quot;&gt;{{&lt;/span&gt;&lt;span style=&quot;color: #9cdcfe&quot;&gt;$category&lt;/span&gt;-&amp;gt;&lt;span style=&quot;color: #9cdcfe&quot;&gt;name&lt;/span&gt;&lt;span style=&quot;color: #dcdcaa&quot;&gt;}}&lt;/span&gt;&lt;span style=&quot;color: #808080&quot;&gt;&amp;lt;/&lt;/span&gt;&lt;span style=&quot;color: #569cd6&quot;&gt;option&lt;/span&gt;&lt;span style=&quot;color: #808080&quot;&gt;&amp;gt;&lt;/span&gt;&lt;/div&gt;&lt;div&gt;&amp;nbsp; &amp;nbsp; &amp;nbsp; &amp;nbsp; &lt;span style=&quot;color: #569cd6&quot;&gt;@endforeach&lt;/span&gt;&lt;/div&gt;&lt;div&gt;&amp;nbsp; &amp;nbsp; &amp;nbsp; &lt;span style=&quot;color: #808080&quot;&gt;&amp;lt;/&lt;/span&gt;&lt;span style=&quot;color: #569cd6&quot;&gt;select&lt;/span&gt;&lt;span style=&quot;color: #808080&quot;&gt;&amp;gt;&lt;/span&gt;&lt;/div&gt;&lt;div&gt;&amp;nbsp; &amp;nbsp; &lt;span style=&quot;color: #808080&quot;&gt;&amp;lt;/&lt;/span&gt;&lt;span style=&quot;color: #569cd6&quot;&gt;div&lt;/span&gt;&lt;span style=&quot;color: #808080&quot;&gt;&amp;gt;&lt;/span&gt;&lt;/div&gt;&lt;/div&gt;&lt;/div&gt;&lt;div&gt;&lt;br&gt;&lt;/div&gt;&lt;div&gt;aggiungere il nuovo campo al salvataggio nella &lt;font color=&quot;#ff9933&quot;&gt;store&lt;/font&gt;&lt;/div&gt;&lt;div&gt;&lt;div style=&quot;color: rgb(212 , 212 , 212) ; background-color: rgb(30 , 30 , 30) ; font-family: &amp;#34;consolas&amp;#34; , &amp;#34;courier new&amp;#34; , monospace ; font-size: 14px ; line-height: 19px&quot;&gt;&lt;span style=&quot;color: #9cdcfe&quot;&gt;$newCar&lt;/span&gt;-&amp;gt;&lt;span style=&quot;color: #9cdcfe&quot;&gt;category_id&lt;/span&gt; = &lt;span style=&quot;color: #9cdcfe&quot;&gt;$data&lt;/span&gt;[&lt;span style=&quot;color: #ce9178&quot;&gt;'category_id'&lt;/span&gt;];&lt;/div&gt;&lt;/div&gt;&lt;div&gt;&lt;br&gt;&lt;/div&gt;&lt;div&gt;fai un DD per vedere cosa ritorna&amp;nbsp;&lt;span style=&quot;background-color: rgb(30 , 30 , 30) ; font-family: &amp;#34;consolas&amp;#34; , &amp;#34;courier new&amp;#34; , monospace ; font-size: 14px ; color: rgb(220 , 220 , 170)&quot;&gt;dd&lt;/span&gt;&lt;span style=&quot;background-color: rgb(30 , 30 , 30) ; color: rgb(212 , 212 , 212) ; font-family: &amp;#34;consolas&amp;#34; , &amp;#34;courier new&amp;#34; , monospace ; font-size: 14px&quot;&gt;(&lt;/span&gt;&lt;span style=&quot;background-color: rgb(30 , 30 , 30) ; font-family: &amp;#34;consolas&amp;#34; , &amp;#34;courier new&amp;#34; , monospace ; font-size: 14px ; color: rgb(156 , 220 , 254)&quot;&gt;$data&lt;/span&gt;&lt;span style=&quot;background-color: rgb(30 , 30 , 30) ; color: rgb(212 , 212 , 212) ; font-family: &amp;#34;consolas&amp;#34; , &amp;#34;courier new&amp;#34; , monospace ; font-size: 14px&quot;&gt;);&lt;/span&gt;&lt;/div&gt;&lt;div&gt;&lt;span style=&quot;background-color: rgb(30 , 30 , 30) ; color: rgb(212 , 212 , 212) ; font-family: &amp;#34;consolas&amp;#34; , &amp;#34;courier new&amp;#34; , monospace ; font-size: 14px&quot;&gt;&lt;br&gt;&lt;/span&gt;&lt;/div&gt;&lt;div&gt;nell &lt;font color=&quot;#ff9933&quot;&gt;edit&lt;/font&gt; aggiungere il form della create&lt;/div&gt;&lt;div&gt;modificare i campi&lt;/div&gt;&lt;div&gt;&lt;br&gt;&lt;/div&gt;&lt;div&gt;nel controller fare l' update&lt;/div&gt;&lt;div&gt;&lt;div style=&quot;color: rgb(212 , 212 , 212) ; background-color: rgb(30 , 30 , 30) ; font-family: &amp;#34;consolas&amp;#34; , &amp;#34;courier new&amp;#34; , monospace ; font-size: 14px ; line-height: 19px&quot;&gt;&lt;div&gt;&amp;nbsp;&lt;span style=&quot;color: #569cd6&quot;&gt;public&lt;/span&gt; &lt;span style=&quot;color: #569cd6&quot;&gt;function&lt;/span&gt; &lt;span style=&quot;color: #dcdcaa&quot;&gt;update&lt;/span&gt;(&lt;span style=&quot;color: #4ec9b0&quot;&gt;Request&lt;/span&gt; &lt;span style=&quot;color: #9cdcfe&quot;&gt;$request&lt;/span&gt;, &lt;span style=&quot;color: #4ec9b0&quot;&gt;Car&lt;/span&gt; &lt;span style=&quot;color: #9cdcfe&quot;&gt;$car&lt;/span&gt;)&lt;/div&gt;&lt;div&gt;&amp;nbsp; &amp;nbsp; {&lt;/div&gt;&lt;div&gt;&amp;nbsp; &amp;nbsp; &amp;nbsp; &amp;nbsp; &lt;span style=&quot;color: #9cdcfe&quot;&gt;$data&lt;/span&gt; = &lt;span style=&quot;color: #9cdcfe&quot;&gt;$request&lt;/span&gt;-&amp;gt;&lt;span style=&quot;color: #dcdcaa&quot;&gt;all&lt;/span&gt;();&lt;/div&gt;&lt;br&gt;&lt;div&gt;&amp;nbsp; &amp;nbsp; &amp;nbsp; &amp;nbsp; &amp;nbsp; &amp;nbsp; &lt;span style=&quot;color: #c586c0&quot;&gt;if&lt;/span&gt;(&lt;span style=&quot;color: #9cdcfe&quot;&gt;$car&lt;/span&gt;-&amp;gt;&lt;span style=&quot;color: #9cdcfe&quot;&gt;name&lt;/span&gt; != &lt;span style=&quot;color: #9cdcfe&quot;&gt;$data&lt;/span&gt;[&lt;span style=&quot;color: #ce9178&quot;&gt;'name'&lt;/span&gt;]){&lt;/div&gt;&lt;div&gt;&amp;nbsp; &amp;nbsp; &amp;nbsp; &amp;nbsp; &amp;nbsp; &amp;nbsp; &amp;nbsp; &amp;nbsp; &lt;span style=&quot;color: #9cdcfe&quot;&gt;$car&lt;/span&gt;-&amp;gt;&lt;span style=&quot;color: #9cdcfe&quot;&gt;name&lt;/span&gt; = &lt;span style=&quot;color: #9cdcfe&quot;&gt;$data&lt;/span&gt;[&lt;span style=&quot;color: #ce9178&quot;&gt;'name'&lt;/span&gt;];&lt;/div&gt;&lt;div&gt;&amp;nbsp; &amp;nbsp; &amp;nbsp; &amp;nbsp; &amp;nbsp; &amp;nbsp; &amp;nbsp; &amp;nbsp; &lt;span style=&quot;color: #9cdcfe&quot;&gt;$slug&lt;/span&gt; = &lt;span style=&quot;color: #4ec9b0&quot;&gt;Str&lt;/span&gt;::&lt;span style=&quot;color: #dcdcaa&quot;&gt;of&lt;/span&gt;(&lt;span style=&quot;color: #9cdcfe&quot;&gt;$car&lt;/span&gt;-&amp;gt;&lt;span style=&quot;color: #9cdcfe&quot;&gt;name&lt;/span&gt;)-&amp;gt;&lt;span style=&quot;color: #dcdcaa&quot;&gt;slug&lt;/span&gt;(&lt;span style=&quot;color: #ce9178&quot;&gt;&quot;-&quot;&lt;/span&gt;);&lt;/div&gt;&lt;div&gt;&amp;nbsp; &amp;nbsp; &amp;nbsp; &amp;nbsp; &amp;nbsp; &amp;nbsp; &amp;nbsp; &amp;nbsp; &lt;span style=&quot;color: #c586c0&quot;&gt;if&lt;/span&gt;(&lt;span style=&quot;color: #9cdcfe&quot;&gt;$slug&lt;/span&gt; != &lt;span style=&quot;color: #9cdcfe&quot;&gt;$car&lt;/span&gt;-&amp;gt;&lt;span style=&quot;color: #9cdcfe&quot;&gt;slug&lt;/span&gt;) {&lt;/div&gt;&lt;div&gt;&amp;nbsp; &amp;nbsp; &amp;nbsp; &amp;nbsp; &amp;nbsp; &amp;nbsp; &amp;nbsp; &amp;nbsp; &amp;nbsp; &amp;nbsp; &lt;span style=&quot;color: #9cdcfe&quot;&gt;$car&lt;/span&gt;-&amp;gt;&lt;span style=&quot;color: #9cdcfe&quot;&gt;slug&lt;/span&gt; = &lt;span style=&quot;color: #569cd6&quot;&gt;$this&lt;/span&gt;-&amp;gt;&lt;span style=&quot;color: #dcdcaa&quot;&gt;getSlug&lt;/span&gt;(&lt;span style=&quot;color: #9cdcfe&quot;&gt;$car&lt;/span&gt;-&amp;gt;&lt;span style=&quot;color: #9cdcfe&quot;&gt;name&lt;/span&gt;);&lt;/div&gt;&lt;div&gt;&amp;nbsp; &amp;nbsp; &amp;nbsp; &amp;nbsp; &amp;nbsp; &amp;nbsp; &amp;nbsp; &amp;nbsp; }&lt;/div&gt;&lt;div&gt;&amp;nbsp; &amp;nbsp; &amp;nbsp; &amp;nbsp; &amp;nbsp; &amp;nbsp; }&lt;/div&gt;&lt;br&gt;&lt;div&gt;&amp;nbsp; &amp;nbsp; }&lt;/div&gt;&lt;br&gt;&lt;/div&gt;&lt;/div&gt;&lt;div&gt;&lt;br&gt;&lt;/div&gt;&lt;div&gt;&lt;font color=&quot;#ffff00&quot;&gt;getSlug&lt;/font&gt; funzione di controllo per lo slug&lt;/div&gt;&lt;div&gt;&lt;div style=&quot;color: rgb(212 , 212 , 212) ; background-color: rgb(30 , 30 , 30) ; font-family: &amp;#34;consolas&amp;#34; , &amp;#34;courier new&amp;#34; , monospace ; font-size: 14px ; line-height: 19px&quot;&gt;&lt;div&gt;&lt;span style=&quot;color: #569cd6&quot;&gt;private&lt;/span&gt; &lt;span style=&quot;color: #569cd6&quot;&gt;function&lt;/span&gt; &lt;span style=&quot;color: #dcdcaa&quot;&gt;getSlug&lt;/span&gt;(&lt;span style=&quot;color: #9cdcfe&quot;&gt;$name&lt;/span&gt;) {&lt;/div&gt;&lt;div&gt;&amp;nbsp; &amp;nbsp; &amp;nbsp; &amp;nbsp; &lt;span style=&quot;color: #9cdcfe&quot;&gt;$slug&lt;/span&gt; = &lt;span style=&quot;color: #4ec9b0&quot;&gt;Str&lt;/span&gt;::&lt;span style=&quot;color: #dcdcaa&quot;&gt;of&lt;/span&gt;(&lt;span style=&quot;color: #9cdcfe&quot;&gt;$name&lt;/span&gt;)-&amp;gt;&lt;span style=&quot;color: #dcdcaa&quot;&gt;slug&lt;/span&gt;(&lt;span style=&quot;color: #ce9178&quot;&gt;&quot;-&quot;&lt;/span&gt;);&lt;/div&gt;&lt;div&gt;&amp;nbsp; &amp;nbsp; &amp;nbsp; &amp;nbsp; &lt;span style=&quot;color: #9cdcfe&quot;&gt;$count&lt;/span&gt; = &lt;span style=&quot;color: #b5cea8&quot;&gt;1&lt;/span&gt;;&lt;/div&gt;&lt;br&gt;&lt;div&gt;&amp;nbsp; &amp;nbsp; &amp;nbsp; &amp;nbsp; &lt;span style=&quot;color: #c586c0&quot;&gt;while&lt;/span&gt;( &lt;span style=&quot;color: #4ec9b0&quot;&gt;Car&lt;/span&gt;::&lt;span style=&quot;color: #dcdcaa&quot;&gt;where&lt;/span&gt;(&lt;span style=&quot;color: #ce9178&quot;&gt;&quot;slug&quot;&lt;/span&gt;, &lt;span style=&quot;color: #9cdcfe&quot;&gt;$slug&lt;/span&gt;)-&amp;gt;&lt;span style=&quot;color: #dcdcaa&quot;&gt;first&lt;/span&gt;() ) {&lt;/div&gt;&lt;div&gt;&amp;nbsp; &amp;nbsp; &amp;nbsp; &amp;nbsp; &amp;nbsp; &amp;nbsp; &lt;span style=&quot;color: #9cdcfe&quot;&gt;$slug&lt;/span&gt; = &lt;span style=&quot;color: #4ec9b0&quot;&gt;Str&lt;/span&gt;::&lt;span style=&quot;color: #dcdcaa&quot;&gt;of&lt;/span&gt;(&lt;span style=&quot;color: #9cdcfe&quot;&gt;$name&lt;/span&gt;)-&amp;gt;&lt;span style=&quot;color: #dcdcaa&quot;&gt;slug&lt;/span&gt;(&lt;span style=&quot;color: #ce9178&quot;&gt;&quot;-&quot;&lt;/span&gt;) . &lt;span style=&quot;color: #ce9178&quot;&gt;&quot;-{&lt;/span&gt;&lt;span style=&quot;color: #9cdcfe&quot;&gt;$count&lt;/span&gt;&lt;span style=&quot;color: #ce9178&quot;&gt;}&quot;&lt;/span&gt;;&lt;/div&gt;&lt;div&gt;&amp;nbsp; &amp;nbsp; &amp;nbsp; &amp;nbsp; &amp;nbsp; &amp;nbsp; &lt;span style=&quot;color: #9cdcfe&quot;&gt;$count&lt;/span&gt;++;&lt;/div&gt;&lt;div&gt;&amp;nbsp; &amp;nbsp; &amp;nbsp; &amp;nbsp; }&lt;/div&gt;&lt;div&gt;&amp;nbsp; &amp;nbsp; &amp;nbsp; &amp;nbsp; &lt;span style=&quot;color: #c586c0&quot;&gt;return&lt;/span&gt; &lt;span style=&quot;color: #9cdcfe&quot;&gt;$slug&lt;/span&gt;;&lt;/div&gt;&lt;br&gt;&lt;div&gt;&amp;nbsp; &amp;nbsp; }&lt;/div&gt;&lt;/div&gt;&lt;/div&gt;&lt;div&gt;&lt;br&gt;&lt;/div&gt;&lt;div&gt;nella store modifica campo slug inserendo la funzione di controllo&lt;/div&gt;&lt;div&gt;&lt;div style=&quot;color: rgb(212 , 212 , 212) ; background-color: rgb(30 , 30 , 30) ; font-family: &amp;#34;consolas&amp;#34; , &amp;#34;courier new&amp;#34; , monospace ; font-size: 14px ; line-height: 19px&quot;&gt;&lt;div&gt;&lt;/div&gt;&lt;div&gt;&amp;nbsp; &amp;nbsp; &amp;nbsp; &amp;nbsp; &lt;span style=&quot;color: #9cdcfe&quot;&gt;$newCar&lt;/span&gt;-&amp;gt;&lt;span style=&quot;color: #9cdcfe&quot;&gt;slug&lt;/span&gt; = &lt;span style=&quot;color: #569cd6&quot;&gt;$this&lt;/span&gt;-&amp;gt;&lt;span style=&quot;color: #dcdcaa&quot;&gt;getSlug&lt;/span&gt;(&lt;span style=&quot;color: #9cdcfe&quot;&gt;$newCar&lt;/span&gt;-&amp;gt;&lt;span style=&quot;color: #9cdcfe&quot;&gt;name&lt;/span&gt;);&lt;/div&gt;&lt;/div&gt;&lt;/div&gt;&lt;div&gt;&lt;br&gt;&lt;/div&gt;&lt;div&gt;aggiungere al controller le validazioni&lt;/div&gt;&lt;div&gt;&lt;div style=&quot;color: rgb(212 , 212 , 212) ; background-color: rgb(30 , 30 , 30) ; font-family: &amp;#34;consolas&amp;#34; , &amp;#34;courier new&amp;#34; , monospace ; font-size: 14px ; line-height: 19px&quot;&gt;&lt;div&gt;&amp;nbsp;&lt;span style=&quot;color: #569cd6&quot;&gt;protected&lt;/span&gt; &lt;span style=&quot;color: #9cdcfe&quot;&gt;$validationRule&lt;/span&gt; = [&lt;/div&gt;&lt;div&gt;&amp;nbsp; &amp;nbsp; &amp;nbsp; &amp;nbsp; &lt;span style=&quot;color: #ce9178&quot;&gt;&quot;name&quot;&lt;/span&gt; =&amp;gt; &lt;span style=&quot;color: #ce9178&quot;&gt;&quot;required|string|max:100&quot;&lt;/span&gt;,&lt;/div&gt;&lt;div&gt;&amp;nbsp; &amp;nbsp; &amp;nbsp; &amp;nbsp; &lt;span style=&quot;color: #ce9178&quot;&gt;&quot;model&quot;&lt;/span&gt; =&amp;gt; &lt;span style=&quot;color: #ce9178&quot;&gt;&quot;required|string|max:100&quot;&lt;/span&gt;,&lt;/div&gt;&lt;div&gt;&amp;nbsp; &amp;nbsp; &amp;nbsp; &amp;nbsp; &lt;span style=&quot;color: #ce9178&quot;&gt;&quot;description&quot;&lt;/span&gt; =&amp;gt; &lt;span style=&quot;color: #ce9178&quot;&gt;&quot;required&quot;&lt;/span&gt;,&lt;/div&gt;&lt;div&gt;&amp;nbsp; &amp;nbsp; &amp;nbsp; &amp;nbsp; &lt;span style=&quot;color: #ce9178&quot;&gt;&quot;available&quot;&lt;/span&gt; =&amp;gt; &lt;span style=&quot;color: #ce9178&quot;&gt;&quot;sometimes|accepted&quot;&lt;/span&gt;,&lt;/div&gt;&lt;div&gt;&amp;nbsp; &amp;nbsp; &amp;nbsp; &amp;nbsp; &lt;span style=&quot;color: #ce9178&quot;&gt;&quot;category_id&quot;&lt;/span&gt; =&amp;gt; &lt;span style=&quot;color: #ce9178&quot;&gt;&quot;nullable|exists:categories,id&quot;&lt;/span&gt;,&lt;/div&gt;&lt;div&gt;&amp;nbsp; &amp;nbsp; ];&lt;/div&gt;&lt;/div&gt;&lt;/div&gt;&lt;div&gt;&lt;br&gt;&lt;/div&gt;&lt;div&gt;aggiungere allo store e update le validazioni&lt;/div&gt;&lt;div&gt;&lt;div style=&quot;color: rgb(212 , 212 , 212) ; background-color: rgb(30 , 30 , 30) ; font-family: &amp;#34;consolas&amp;#34; , &amp;#34;courier new&amp;#34; , monospace ; font-size: 14px ; line-height: 19px&quot;&gt;&lt;span style=&quot;color: #9cdcfe&quot;&gt;$request&lt;/span&gt;-&amp;gt;&lt;span style=&quot;color: #dcdcaa&quot;&gt;validate&lt;/span&gt;(&lt;span style=&quot;color: #569cd6&quot;&gt;$this&lt;/span&gt;-&amp;gt;&lt;span style=&quot;color: #9cdcfe&quot;&gt;validationRule&lt;/span&gt;);&lt;/div&gt;&lt;/div&gt;&lt;div&gt;&lt;br&gt;&lt;/div&gt;&lt;div&gt;nei template edit e create aggiungere i div di errore&lt;/div&gt;&lt;div&gt;&lt;div style=&quot;color: rgb(212 , 212 , 212) ; background-color: rgb(30 , 30 , 30) ; font-family: &amp;#34;consolas&amp;#34; , &amp;#34;courier new&amp;#34; , monospace ; font-size: 14px ; line-height: 19px&quot;&gt;&lt;div&gt;&amp;nbsp;&lt;span style=&quot;color: #569cd6&quot;&gt;@error&lt;/span&gt;(&lt;span style=&quot;color: #ce9178&quot;&gt;'category_id'&lt;/span&gt;)&lt;/div&gt;&lt;div&gt;&amp;nbsp; &amp;nbsp; &amp;nbsp; &amp;nbsp; &lt;span style=&quot;color: #808080&quot;&gt;&amp;lt;&lt;/span&gt;&lt;span style=&quot;color: #569cd6&quot;&gt;div&lt;/span&gt; &lt;span style=&quot;color: #9cdcfe&quot;&gt;class&lt;/span&gt;=&lt;span style=&quot;color: #ce9178&quot;&gt;&quot;alert alert-danger&quot;&lt;/span&gt;&lt;span style=&quot;color: #808080&quot;&gt;&amp;gt;&lt;/span&gt;&lt;/div&gt;&lt;div&gt;&amp;nbsp; &amp;nbsp; &amp;nbsp; &amp;nbsp; &amp;nbsp; &lt;span style=&quot;color: #dcdcaa&quot;&gt;{{&lt;/span&gt;&lt;span style=&quot;color: #9cdcfe&quot;&gt;$message&lt;/span&gt;&lt;span style=&quot;color: #dcdcaa&quot;&gt;}}&lt;/span&gt;&lt;/div&gt;&lt;div&gt;&amp;nbsp; &amp;nbsp; &amp;nbsp; &amp;nbsp; &lt;span style=&quot;color: #808080&quot;&gt;&amp;lt;/&lt;/span&gt;&lt;span style=&quot;color: #569cd6&quot;&gt;div&lt;/span&gt;&lt;span style=&quot;color: #808080&quot;&gt;&amp;gt;&lt;/span&gt;&lt;/div&gt;&lt;div&gt;&amp;nbsp; &amp;nbsp; &amp;nbsp; &lt;span style=&quot;color: #569cd6&quot;&gt;@enderror&lt;/span&gt;&lt;/div&gt;&lt;/div&gt;&lt;/div&gt;&lt;div&gt;nella classe aggiungere l'errore&lt;/div&gt;&lt;div&gt;&lt;div style=&quot;color: rgb(212 , 212 , 212) ; background-color: rgb(30 , 30 , 30) ; font-family: &amp;#34;consolas&amp;#34; , &amp;#34;courier new&amp;#34; , monospace ; font-size: 14px ; line-height: 19px&quot;&gt;&lt;span style=&quot;color: #808080&quot;&gt;&amp;lt;&lt;/span&gt;&lt;span style=&quot;color: #569cd6&quot;&gt;select&lt;/span&gt; &lt;span style=&quot;color: #9cdcfe&quot;&gt;name&lt;/span&gt;=&lt;span style=&quot;color: #ce9178&quot;&gt;&quot;category_id&quot;&lt;/span&gt; &lt;span style=&quot;color: #9cdcfe&quot;&gt;id&lt;/span&gt;=&lt;span style=&quot;color: #ce9178&quot;&gt;&quot;category&quot;&lt;/span&gt; &lt;span style=&quot;color: #9cdcfe&quot;&gt;class&lt;/span&gt;=&lt;span style=&quot;color: #ce9178&quot;&gt;&quot;form-control &lt;/span&gt;&lt;span style=&quot;color: #569cd6&quot;&gt;@error&lt;/span&gt;&lt;span style=&quot;color: #ce9178&quot;&gt;(&lt;/span&gt;&lt;span style=&quot;color: #ce9178&quot;&gt;'category_id'&lt;/span&gt;&lt;span style=&quot;color: #ce9178&quot;&gt;) is-invalid &lt;/span&gt;&lt;span style=&quot;color: #569cd6&quot;&gt;@enderror&lt;/span&gt;&lt;span style=&quot;color: #ce9178&quot;&gt; &quot;&lt;/span&gt;&lt;span style=&quot;color: #808080&quot;&gt;&amp;gt;&lt;/span&gt;&lt;/div&gt;&lt;/div&gt;&lt;div&gt;&lt;br&gt;&lt;/div&gt;&lt;div&gt;&lt;span style=&quot;background-color: rgb(30 , 30 , 30) ; color: rgb(212 , 212 , 212) ; font-family: &amp;#34;consolas&amp;#34; , &amp;#34;courier new&amp;#34; , monospace ; font-size: 14px&quot;&gt;&lt;br&gt;&lt;/span&gt;&lt;/div&gt;&lt;div&gt;&lt;span style=&quot;background-color: rgb(30 , 30 , 30) ; color: rgb(212 , 212 , 212) ; font-family: &amp;#34;consolas&amp;#34; , &amp;#34;courier new&amp;#34; , monospace ; font-size: 14px&quot;&gt;&lt;br&gt;&lt;/span&gt;&lt;/div&gt;&lt;div&gt;&lt;span style=&quot;background-color: rgb(30 , 30 , 30) ; color: rgb(212 , 212 , 212) ; font-family: &amp;#34;consolas&amp;#34; , &amp;#34;courier new&amp;#34; , monospace ; font-size: 14px&quot;&gt;&lt;br&gt;&lt;/span&gt;&lt;/div&gt;&lt;div&gt;&lt;span style=&quot;background-color: rgb(30 , 30 , 30) ; color: rgb(212 , 212 , 212) ; font-family: &amp;#34;consolas&amp;#34; , &amp;#34;courier new&amp;#34; , monospace ; font-size: 14px&quot;&gt;&lt;br&gt;&lt;/span&gt;&lt;/div&gt;&lt;div&gt;&lt;br&gt;&lt;/div&gt;&lt;div&gt;&lt;br&gt;&lt;/div&gt;&lt;div&gt;&lt;br&gt;&lt;/div&gt;&lt;div&gt;&lt;br&gt;&lt;/div&gt;&lt;div&gt;&lt;br&gt;&lt;/div&gt;&lt;div&gt;&lt;br&gt;&lt;/div&gt;" style="text;html=1;strokeColor=#FFFFFF;fillColor=none;spacing=5;spacingTop=-20;whiteSpace=wrap;overflow=hidden;rounded=0;fontSize=12;fontColor=#FFFFFF;" parent="1" vertex="1">
                    <mxGeometry x="80" y="2130" width="490" height="2010" as="geometry"/>
                </mxCell>
                <mxCell id="26" value="&lt;div style=&quot;text-align: left ; font-size: 12px&quot;&gt;&lt;font style=&quot;font-size: 12px&quot;&gt;class&amp;nbsp;User extends Model {&lt;/font&gt;&lt;/div&gt;&lt;div style=&quot;text-align: left ; font-size: 12px&quot;&gt;&lt;font style=&quot;font-size: 12px&quot;&gt;&lt;span style=&quot;white-space: pre&quot;&gt;&#9;&lt;/span&gt;public function posts() {&lt;br&gt;&lt;/font&gt;&lt;/div&gt;&lt;div style=&quot;text-align: left ; font-size: 12px&quot;&gt;&lt;font style=&quot;font-size: 12px&quot;&gt;&lt;span style=&quot;white-space: pre&quot;&gt;&#9;&lt;/span&gt;&lt;span style=&quot;white-space: pre&quot;&gt;&#9;&lt;/span&gt;return $this-&amp;gt;hasMany('App\Post');&lt;br&gt;&lt;/font&gt;&lt;/div&gt;&lt;div style=&quot;text-align: left ; font-size: 12px&quot;&gt;&lt;font style=&quot;font-size: 12px&quot;&gt;&lt;span style=&quot;white-space: pre&quot;&gt;&#9;&lt;/span&gt;}&lt;br&gt;&lt;/font&gt;&lt;/div&gt;&lt;div style=&quot;text-align: left ; font-size: 12px&quot;&gt;&lt;font style=&quot;font-size: 12px&quot;&gt;}&lt;/font&gt;&lt;/div&gt;" style="text;html=1;strokeColor=#B09500;fillColor=#e3c800;align=center;verticalAlign=middle;whiteSpace=wrap;rounded=0;fontSize=10;fontColor=#000000;" parent="1" vertex="1">
                    <mxGeometry x="680" y="1180" width="270" height="100" as="geometry"/>
                </mxCell>
                <mxCell id="82" value="RELAZIONI 1 a MOLTI" style="text;html=1;align=center;verticalAlign=middle;resizable=0;points=[];autosize=1;strokeColor=none;fillColor=none;" parent="1" vertex="1">
                    <mxGeometry x="390" y="90" width="140" height="20" as="geometry"/>
                </mxCell>
                <mxCell id="93" value="Cars" style="shape=table;startSize=30;container=1;collapsible=1;childLayout=tableLayout;fixedRows=1;rowLines=0;fontStyle=1;align=center;resizeLast=1;" parent="1" vertex="1">
                    <mxGeometry x="155" y="170" width="180" height="260" as="geometry"/>
                </mxCell>
                <mxCell id="94" value="" style="shape=partialRectangle;collapsible=0;dropTarget=0;pointerEvents=0;fillColor=none;top=0;left=0;bottom=1;right=0;points=[[0,0.5],[1,0.5]];portConstraint=eastwest;" parent="93" vertex="1">
                    <mxGeometry y="30" width="180" height="30" as="geometry"/>
                </mxCell>
                <mxCell id="95" value="PK" style="shape=partialRectangle;connectable=0;fillColor=none;top=0;left=0;bottom=0;right=0;fontStyle=1;overflow=hidden;" parent="94" vertex="1">
                    <mxGeometry width="30" height="30" as="geometry">
                        <mxRectangle width="30" height="30" as="alternateBounds"/>
                    </mxGeometry>
                </mxCell>
                <mxCell id="96" value="ID" style="shape=partialRectangle;connectable=0;fillColor=none;top=0;left=0;bottom=0;right=0;align=left;spacingLeft=6;fontStyle=5;overflow=hidden;" parent="94" vertex="1">
                    <mxGeometry x="30" width="150" height="30" as="geometry">
                        <mxRectangle width="150" height="30" as="alternateBounds"/>
                    </mxGeometry>
                </mxCell>
                <mxCell id="97" value="" style="shape=partialRectangle;collapsible=0;dropTarget=0;pointerEvents=0;fillColor=none;top=0;left=0;bottom=0;right=0;points=[[0,0.5],[1,0.5]];portConstraint=eastwest;" parent="93" vertex="1">
                    <mxGeometry y="60" width="180" height="30" as="geometry"/>
                </mxCell>
                <mxCell id="98" value="" style="shape=partialRectangle;connectable=0;fillColor=none;top=0;left=0;bottom=0;right=0;editable=1;overflow=hidden;" parent="97" vertex="1">
                    <mxGeometry width="30" height="30" as="geometry">
                        <mxRectangle width="30" height="30" as="alternateBounds"/>
                    </mxGeometry>
                </mxCell>
                <mxCell id="99" value="name" style="shape=partialRectangle;connectable=0;fillColor=none;top=0;left=0;bottom=0;right=0;align=left;spacingLeft=6;overflow=hidden;" parent="97" vertex="1">
                    <mxGeometry x="30" width="150" height="30" as="geometry">
                        <mxRectangle width="150" height="30" as="alternateBounds"/>
                    </mxGeometry>
                </mxCell>
                <mxCell id="100" value="" style="shape=partialRectangle;collapsible=0;dropTarget=0;pointerEvents=0;fillColor=none;top=0;left=0;bottom=0;right=0;points=[[0,0.5],[1,0.5]];portConstraint=eastwest;" parent="93" vertex="1">
                    <mxGeometry y="90" width="180" height="30" as="geometry"/>
                </mxCell>
                <mxCell id="101" value="" style="shape=partialRectangle;connectable=0;fillColor=none;top=0;left=0;bottom=0;right=0;editable=1;overflow=hidden;" parent="100" vertex="1">
                    <mxGeometry width="30" height="30" as="geometry">
                        <mxRectangle width="30" height="30" as="alternateBounds"/>
                    </mxGeometry>
                </mxCell>
                <mxCell id="102" value="model" style="shape=partialRectangle;connectable=0;fillColor=none;top=0;left=0;bottom=0;right=0;align=left;spacingLeft=6;overflow=hidden;" parent="100" vertex="1">
                    <mxGeometry x="30" width="150" height="30" as="geometry">
                        <mxRectangle width="150" height="30" as="alternateBounds"/>
                    </mxGeometry>
                </mxCell>
                <mxCell id="103" value="" style="shape=partialRectangle;collapsible=0;dropTarget=0;pointerEvents=0;fillColor=none;top=0;left=0;bottom=0;right=0;points=[[0,0.5],[1,0.5]];portConstraint=eastwest;" parent="93" vertex="1">
                    <mxGeometry y="120" width="180" height="30" as="geometry"/>
                </mxCell>
                <mxCell id="104" value="" style="shape=partialRectangle;connectable=0;fillColor=none;top=0;left=0;bottom=0;right=0;editable=1;overflow=hidden;" parent="103" vertex="1">
                    <mxGeometry width="30" height="30" as="geometry">
                        <mxRectangle width="30" height="30" as="alternateBounds"/>
                    </mxGeometry>
                </mxCell>
                <mxCell id="105" value="slug" style="shape=partialRectangle;connectable=0;fillColor=none;top=0;left=0;bottom=0;right=0;align=left;spacingLeft=6;overflow=hidden;" parent="103" vertex="1">
                    <mxGeometry x="30" width="150" height="30" as="geometry">
                        <mxRectangle width="150" height="30" as="alternateBounds"/>
                    </mxGeometry>
                </mxCell>
                <mxCell id="119" value="" style="shape=partialRectangle;collapsible=0;dropTarget=0;pointerEvents=0;fillColor=none;top=0;left=0;bottom=0;right=0;points=[[0,0.5],[1,0.5]];portConstraint=eastwest;" parent="93" vertex="1">
                    <mxGeometry y="150" width="180" height="30" as="geometry"/>
                </mxCell>
                <mxCell id="120" value="" style="shape=partialRectangle;connectable=0;fillColor=none;top=0;left=0;bottom=0;right=0;editable=1;overflow=hidden;" parent="119" vertex="1">
                    <mxGeometry width="30" height="30" as="geometry">
                        <mxRectangle width="30" height="30" as="alternateBounds"/>
                    </mxGeometry>
                </mxCell>
                <mxCell id="121" value="description" style="shape=partialRectangle;connectable=0;fillColor=none;top=0;left=0;bottom=0;right=0;align=left;spacingLeft=6;overflow=hidden;" parent="119" vertex="1">
                    <mxGeometry x="30" width="150" height="30" as="geometry">
                        <mxRectangle width="150" height="30" as="alternateBounds"/>
                    </mxGeometry>
                </mxCell>
                <mxCell id="122" value="" style="shape=partialRectangle;collapsible=0;dropTarget=0;pointerEvents=0;fillColor=none;top=0;left=0;bottom=0;right=0;points=[[0,0.5],[1,0.5]];portConstraint=eastwest;" parent="93" vertex="1">
                    <mxGeometry y="180" width="180" height="40" as="geometry"/>
                </mxCell>
                <mxCell id="123" value="" style="shape=partialRectangle;connectable=0;fillColor=none;top=0;left=0;bottom=0;right=0;editable=1;overflow=hidden;" parent="122" vertex="1">
                    <mxGeometry width="30" height="40" as="geometry">
                        <mxRectangle width="30" height="40" as="alternateBounds"/>
                    </mxGeometry>
                </mxCell>
                <mxCell id="124" value="avaiable" style="shape=partialRectangle;connectable=0;fillColor=none;top=0;left=0;bottom=0;right=0;align=left;spacingLeft=6;overflow=hidden;" parent="122" vertex="1">
                    <mxGeometry x="30" width="150" height="40" as="geometry">
                        <mxRectangle width="150" height="40" as="alternateBounds"/>
                    </mxGeometry>
                </mxCell>
                <mxCell id="130" value="" style="shape=partialRectangle;collapsible=0;dropTarget=0;pointerEvents=0;fillColor=none;top=0;left=0;bottom=0;right=0;points=[[0,0.5],[1,0.5]];portConstraint=eastwest;" parent="93" vertex="1">
                    <mxGeometry y="220" width="180" height="30" as="geometry"/>
                </mxCell>
                <mxCell id="131" value="FK" style="shape=partialRectangle;connectable=0;fillColor=none;top=0;left=0;bottom=0;right=0;editable=1;overflow=hidden;" parent="130" vertex="1">
                    <mxGeometry width="30" height="30" as="geometry">
                        <mxRectangle width="30" height="30" as="alternateBounds"/>
                    </mxGeometry>
                </mxCell>
                <mxCell id="132" value="category_id" style="shape=partialRectangle;connectable=0;fillColor=none;top=0;left=0;bottom=0;right=0;align=left;spacingLeft=6;overflow=hidden;" parent="130" vertex="1">
                    <mxGeometry x="30" width="150" height="30" as="geometry">
                        <mxRectangle width="150" height="30" as="alternateBounds"/>
                    </mxGeometry>
                </mxCell>
                <mxCell id="106" value="Categories" style="shape=table;startSize=30;container=1;collapsible=1;childLayout=tableLayout;fixedRows=1;rowLines=0;fontStyle=1;align=center;resizeLast=1;" parent="1" vertex="1">
                    <mxGeometry x="520" y="170" width="180" height="130" as="geometry"/>
                </mxCell>
                <mxCell id="107" value="" style="shape=partialRectangle;collapsible=0;dropTarget=0;pointerEvents=0;fillColor=none;top=0;left=0;bottom=1;right=0;points=[[0,0.5],[1,0.5]];portConstraint=eastwest;" parent="106" vertex="1">
                    <mxGeometry y="30" width="180" height="30" as="geometry"/>
                </mxCell>
                <mxCell id="108" value="PK" style="shape=partialRectangle;connectable=0;fillColor=none;top=0;left=0;bottom=0;right=0;fontStyle=1;overflow=hidden;" parent="107" vertex="1">
                    <mxGeometry width="30" height="30" as="geometry">
                        <mxRectangle width="30" height="30" as="alternateBounds"/>
                    </mxGeometry>
                </mxCell>
                <mxCell id="109" value="ID" style="shape=partialRectangle;connectable=0;fillColor=none;top=0;left=0;bottom=0;right=0;align=left;spacingLeft=6;fontStyle=5;overflow=hidden;" parent="107" vertex="1">
                    <mxGeometry x="30" width="150" height="30" as="geometry">
                        <mxRectangle width="150" height="30" as="alternateBounds"/>
                    </mxGeometry>
                </mxCell>
                <mxCell id="110" value="" style="shape=partialRectangle;collapsible=0;dropTarget=0;pointerEvents=0;fillColor=none;top=0;left=0;bottom=0;right=0;points=[[0,0.5],[1,0.5]];portConstraint=eastwest;" parent="106" vertex="1">
                    <mxGeometry y="60" width="180" height="30" as="geometry"/>
                </mxCell>
                <mxCell id="111" value="" style="shape=partialRectangle;connectable=0;fillColor=none;top=0;left=0;bottom=0;right=0;editable=1;overflow=hidden;" parent="110" vertex="1">
                    <mxGeometry width="30" height="30" as="geometry">
                        <mxRectangle width="30" height="30" as="alternateBounds"/>
                    </mxGeometry>
                </mxCell>
                <mxCell id="112" value="name" style="shape=partialRectangle;connectable=0;fillColor=none;top=0;left=0;bottom=0;right=0;align=left;spacingLeft=6;overflow=hidden;" parent="110" vertex="1">
                    <mxGeometry x="30" width="150" height="30" as="geometry">
                        <mxRectangle width="150" height="30" as="alternateBounds"/>
                    </mxGeometry>
                </mxCell>
                <mxCell id="113" value="" style="shape=partialRectangle;collapsible=0;dropTarget=0;pointerEvents=0;fillColor=none;top=0;left=0;bottom=0;right=0;points=[[0,0.5],[1,0.5]];portConstraint=eastwest;" parent="106" vertex="1">
                    <mxGeometry y="90" width="180" height="30" as="geometry"/>
                </mxCell>
                <mxCell id="114" value="" style="shape=partialRectangle;connectable=0;fillColor=none;top=0;left=0;bottom=0;right=0;editable=1;overflow=hidden;" parent="113" vertex="1">
                    <mxGeometry width="30" height="30" as="geometry">
                        <mxRectangle width="30" height="30" as="alternateBounds"/>
                    </mxGeometry>
                </mxCell>
                <mxCell id="115" value="slug" style="shape=partialRectangle;connectable=0;fillColor=none;top=0;left=0;bottom=0;right=0;align=left;spacingLeft=6;overflow=hidden;" parent="113" vertex="1">
                    <mxGeometry x="30" width="150" height="30" as="geometry">
                        <mxRectangle width="150" height="30" as="alternateBounds"/>
                    </mxGeometry>
                </mxCell>
                <mxCell id="126" value="" style="endArrow=classic;html=1;exitX=-0.056;exitY=0.333;exitDx=0;exitDy=0;exitPerimeter=0;" parent="1" source="107" edge="1">
                    <mxGeometry width="50" height="50" relative="1" as="geometry">
                        <mxPoint x="410" y="280" as="sourcePoint"/>
                        <mxPoint x="350" y="420" as="targetPoint"/>
                        <Array as="points">
                            <mxPoint x="430" y="210"/>
                            <mxPoint x="430" y="420"/>
                        </Array>
                    </mxGeometry>
                </mxCell>
                <mxCell id="128" value="1" style="text;html=1;align=center;verticalAlign=middle;resizable=0;points=[];autosize=1;strokeColor=none;fillColor=none;" parent="1" vertex="1">
                    <mxGeometry x="460" y="180" width="20" height="20" as="geometry"/>
                </mxCell>
                <mxCell id="129" value="n" style="text;html=1;align=center;verticalAlign=middle;resizable=0;points=[];autosize=1;strokeColor=none;fillColor=none;" parent="1" vertex="1">
                    <mxGeometry x="340" y="390" width="20" height="20" as="geometry"/>
                </mxCell>
                <mxCell id="133" value="&lt;h1&gt;relazione 1 a 1&lt;/h1&gt;&lt;div&gt;&lt;div&gt;TABELLA PRINCIPALE&lt;/div&gt;&lt;div&gt;nel model principale inseriamo una funzione con un nome che identifichi la relazione con l'altra tabella, e aggiungiamo un metodo &lt;font color=&quot;#ffff00&quot;&gt;userInfo()&lt;/font&gt;&amp;nbsp;&amp;nbsp;&lt;span style=&quot;color: rgb(255 , 153 , 51)&quot;&gt;nome del model al singolare&amp;nbsp;&lt;/span&gt;&lt;span&gt;nella&lt;/span&gt;&lt;span style=&quot;color: rgb(255 , 153 , 51)&quot;&gt;&amp;nbsp;&lt;/span&gt;&lt;span&gt;quale restituiamo il tipo di relazione &lt;/span&gt;&lt;font color=&quot;#ffff00&quot;&gt;hasOne()&lt;/font&gt;&lt;/div&gt;&lt;/div&gt;&lt;div&gt;&lt;font color=&quot;#ffff00&quot;&gt;&lt;br&gt;&lt;/font&gt;&lt;/div&gt;&lt;div&gt;&lt;div&gt;TABELLA COLLEGATA&lt;/div&gt;&lt;div&gt;nel model secondario inseriamo una funzione con un nome che identifichi la relazione con l'altra tabella, e aggiungiamo un metodo&amp;nbsp;&lt;font color=&quot;#ffff00&quot;&gt;user()&lt;/font&gt;&amp;nbsp;&lt;span style=&quot;color: rgb(255 , 153 , 51)&quot;&gt;nome del model al singolare&amp;nbsp;&lt;/span&gt;&lt;span&gt;nella quale restituiamo il tipo di relazione&amp;nbsp;&lt;/span&gt;&lt;font color=&quot;#ffff00&quot;&gt;belongsTo()&lt;/font&gt;&lt;/div&gt;&lt;/div&gt;&lt;div&gt;&lt;font color=&quot;#ffff00&quot;&gt;&lt;br&gt;&lt;/font&gt;&lt;/div&gt;" style="text;html=1;strokeColor=#FFFFFF;fillColor=none;spacing=5;spacingTop=-20;whiteSpace=wrap;overflow=hidden;rounded=0;fontSize=12;fontColor=#FFFFFF;" parent="1" vertex="1">
                    <mxGeometry x="80" y="870" width="540" height="250" as="geometry"/>
                </mxCell>
                <mxCell id="134" value="&lt;h1&gt;relazione 1 a molti&lt;/h1&gt;&lt;div&gt;TABELLA PRINCIPALE&lt;/div&gt;&lt;div&gt;nel model principale inseriamo una funzione con un nome che identifichi la relazione con l'altra tabella, e aggiungiamo un metodo &lt;font color=&quot;#ffff00&quot;&gt;posts() &lt;/font&gt;&lt;font color=&quot;#ff9933&quot;&gt;nome del model al plurale&lt;/font&gt;&amp;nbsp;nella quale restituiamo il tipo di relazione &lt;font color=&quot;#ffff00&quot;&gt;hasMany()&lt;/font&gt;&lt;/div&gt;&lt;div&gt;&lt;font color=&quot;#ffff00&quot;&gt;&lt;br&gt;&lt;/font&gt;&lt;/div&gt;&lt;div&gt;TABELLA COLLEGATA&lt;/div&gt;&lt;div&gt;&lt;div&gt;nel model secondario inseriamo una funzione con un nome che identifichi la relazione con l'altra tabella, e aggiungiamo un metodo&amp;nbsp;&lt;font color=&quot;#ffff00&quot;&gt;user()&amp;nbsp;&lt;/font&gt;&lt;span style=&quot;color: rgb(255 , 153 , 51)&quot;&gt;nome del model al singolare&amp;nbsp;&lt;/span&gt;&lt;span&gt;nella quale restituiamo il tipo di relazione&amp;nbsp;&lt;/span&gt;&lt;font color=&quot;#ffff00&quot;&gt;belongsTo()&lt;/font&gt;&lt;/div&gt;&lt;/div&gt;&lt;div&gt;&lt;font color=&quot;#ffff00&quot;&gt;&lt;br&gt;&lt;/font&gt;&lt;/div&gt;&lt;div&gt;&lt;font color=&quot;#ffff00&quot;&gt;&lt;br&gt;&lt;/font&gt;&lt;/div&gt;" style="text;html=1;strokeColor=#FFFFFF;fillColor=none;spacing=5;spacingTop=-20;whiteSpace=wrap;overflow=hidden;rounded=0;fontSize=12;fontColor=#FFFFFF;" parent="1" vertex="1">
                    <mxGeometry x="80" y="1190" width="540" height="250" as="geometry"/>
                </mxCell>
                <mxCell id="135" value="&lt;div style=&quot;text-align: left ; font-size: 12px&quot;&gt;&lt;font style=&quot;font-size: 12px&quot;&gt;class Post extends Model {&lt;/font&gt;&lt;/div&gt;&lt;div style=&quot;text-align: left ; font-size: 12px&quot;&gt;&lt;font style=&quot;font-size: 12px&quot;&gt;&lt;span style=&quot;white-space: pre&quot;&gt;&#9;&lt;/span&gt;public function user() {&lt;br&gt;&lt;/font&gt;&lt;/div&gt;&lt;div style=&quot;text-align: left ; font-size: 12px&quot;&gt;&lt;font style=&quot;font-size: 12px&quot;&gt;&lt;span style=&quot;white-space: pre&quot;&gt;&#9;&lt;/span&gt;&lt;span style=&quot;white-space: pre&quot;&gt;&#9;&lt;/span&gt;return $this-&amp;gt;belongsTo('App\User');&lt;br&gt;&lt;/font&gt;&lt;/div&gt;&lt;div style=&quot;text-align: left ; font-size: 12px&quot;&gt;&lt;font style=&quot;font-size: 12px&quot;&gt;&lt;span style=&quot;white-space: pre&quot;&gt;&#9;&lt;/span&gt;}&lt;br&gt;&lt;/font&gt;&lt;/div&gt;&lt;div style=&quot;text-align: left ; font-size: 12px&quot;&gt;&lt;font style=&quot;font-size: 12px&quot;&gt;}&lt;/font&gt;&lt;/div&gt;" style="text;html=1;strokeColor=#B09500;fillColor=#e3c800;align=center;verticalAlign=middle;whiteSpace=wrap;rounded=0;fontSize=10;fontColor=#000000;" vertex="1" parent="1">
                    <mxGeometry x="680" y="1300" width="270" height="100" as="geometry"/>
                </mxCell>
                <mxCell id="136" value="&lt;div style=&quot;text-align: left ; font-size: 12px&quot;&gt;&lt;font style=&quot;font-size: 12px&quot;&gt;class&amp;nbsp;User extends Model {&lt;/font&gt;&lt;/div&gt;&lt;div style=&quot;text-align: left ; font-size: 12px&quot;&gt;&lt;font style=&quot;font-size: 12px&quot;&gt;&lt;span style=&quot;white-space: pre&quot;&gt;&#9;&lt;/span&gt;public function userInfo() {&lt;br&gt;&lt;/font&gt;&lt;/div&gt;&lt;div style=&quot;text-align: left ; font-size: 12px&quot;&gt;&lt;font style=&quot;font-size: 12px&quot;&gt;&lt;span style=&quot;white-space: pre&quot;&gt;&#9;&lt;/span&gt;&lt;span style=&quot;white-space: pre&quot;&gt;&#9;&lt;/span&gt;return $this-&amp;gt;hasOne('App\UserInfo');&lt;br&gt;&lt;/font&gt;&lt;/div&gt;&lt;div style=&quot;text-align: left ; font-size: 12px&quot;&gt;&lt;font style=&quot;font-size: 12px&quot;&gt;&lt;span style=&quot;white-space: pre&quot;&gt;&#9;&lt;/span&gt;}&lt;br&gt;&lt;/font&gt;&lt;/div&gt;&lt;div style=&quot;text-align: left ; font-size: 12px&quot;&gt;&lt;font style=&quot;font-size: 12px&quot;&gt;}&lt;/font&gt;&lt;/div&gt;" style="text;html=1;strokeColor=#B09500;fillColor=#e3c800;align=center;verticalAlign=middle;whiteSpace=wrap;rounded=0;fontSize=10;fontColor=#000000;" vertex="1" parent="1">
                    <mxGeometry x="680" y="870" width="270" height="100" as="geometry"/>
                </mxCell>
                <mxCell id="137" value="&lt;div style=&quot;text-align: left ; font-size: 12px&quot;&gt;&lt;font style=&quot;font-size: 12px&quot;&gt;class&amp;nbsp;UserInfo extends Model {&lt;/font&gt;&lt;/div&gt;&lt;div style=&quot;text-align: left ; font-size: 12px&quot;&gt;&lt;font style=&quot;font-size: 12px&quot;&gt;&lt;span style=&quot;white-space: pre&quot;&gt;&#9;&lt;/span&gt;public function user() {&lt;br&gt;&lt;/font&gt;&lt;/div&gt;&lt;div style=&quot;text-align: left ; font-size: 12px&quot;&gt;&lt;font style=&quot;font-size: 12px&quot;&gt;&lt;span style=&quot;white-space: pre&quot;&gt;&#9;&lt;/span&gt;&lt;span style=&quot;white-space: pre&quot;&gt;&#9;&lt;/span&gt;return $this-&amp;gt;belongsTo('App\User');&lt;br&gt;&lt;/font&gt;&lt;/div&gt;&lt;div style=&quot;text-align: left ; font-size: 12px&quot;&gt;&lt;font style=&quot;font-size: 12px&quot;&gt;&lt;span style=&quot;white-space: pre&quot;&gt;&#9;&lt;/span&gt;}&lt;br&gt;&lt;/font&gt;&lt;/div&gt;&lt;div style=&quot;text-align: left ; font-size: 12px&quot;&gt;&lt;font style=&quot;font-size: 12px&quot;&gt;}&lt;/font&gt;&lt;/div&gt;" style="text;html=1;strokeColor=#B09500;fillColor=#e3c800;align=center;verticalAlign=middle;whiteSpace=wrap;rounded=0;fontSize=10;fontColor=#000000;" vertex="1" parent="1">
                    <mxGeometry x="680" y="990" width="270" height="100" as="geometry"/>
                </mxCell>
                <mxCell id="139" value="&lt;div style=&quot;text-align: left ; font-size: 12px&quot;&gt;&lt;div style=&quot;color: rgb(212 , 212 , 212) ; background-color: rgb(30 , 30 , 30) ; font-family: &amp;#34;consolas&amp;#34; , &amp;#34;courier new&amp;#34; , monospace ; font-size: 14px ; line-height: 19px&quot;&gt;&lt;div&gt;&lt;span style=&quot;color: #569cd6&quot;&gt;public&lt;/span&gt; &lt;span style=&quot;color: #569cd6&quot;&gt;function&lt;/span&gt; &lt;span style=&quot;color: #dcdcaa&quot;&gt;up&lt;/span&gt;()&lt;/div&gt;&lt;div&gt;&amp;nbsp; &amp;nbsp; {&lt;/div&gt;&lt;div&gt;&amp;nbsp; &amp;nbsp; &amp;nbsp; &amp;nbsp; &lt;span style=&quot;color: #4ec9b0&quot;&gt;Schema&lt;/span&gt;::&lt;span style=&quot;color: #dcdcaa&quot;&gt;table&lt;/span&gt;(&lt;span style=&quot;color: #ce9178&quot;&gt;'cars'&lt;/span&gt;, &lt;span style=&quot;color: #569cd6&quot;&gt;function&lt;/span&gt; (&lt;span style=&quot;color: #4ec9b0&quot;&gt;Blueprint&lt;/span&gt; &lt;span style=&quot;color: #9cdcfe&quot;&gt;$table&lt;/span&gt;) {&lt;/div&gt;&lt;div&gt;&amp;nbsp; &amp;nbsp; &amp;nbsp; &amp;nbsp; &amp;nbsp; &amp;nbsp; &lt;span style=&quot;color: #9cdcfe&quot;&gt;$table&lt;/span&gt;-&amp;gt;&lt;span style=&quot;color: #dcdcaa&quot;&gt;unsignedBigInteger&lt;/span&gt;(&lt;span style=&quot;color: #ce9178&quot;&gt;'category_id'&lt;/span&gt;);&lt;/div&gt;&lt;br&gt;&lt;div&gt;&amp;nbsp; &amp;nbsp; &amp;nbsp; &amp;nbsp; &amp;nbsp; &amp;nbsp; &lt;span style=&quot;color: #9cdcfe&quot;&gt;$table&lt;/span&gt;-&amp;gt;&lt;span style=&quot;color: #dcdcaa&quot;&gt;foreign&lt;/span&gt;(&lt;span style=&quot;color: #ce9178&quot;&gt;'category_id'&lt;/span&gt;)&lt;/div&gt;&lt;div&gt;&amp;nbsp; &amp;nbsp; &amp;nbsp; &amp;nbsp; &amp;nbsp; &amp;nbsp; &amp;nbsp; &amp;nbsp; &amp;nbsp; &amp;nbsp; -&amp;gt;&lt;span style=&quot;color: #dcdcaa&quot;&gt;references&lt;/span&gt;(&lt;span style=&quot;color: #ce9178&quot;&gt;'id'&lt;/span&gt;)&lt;/div&gt;&lt;div&gt;&amp;nbsp; &amp;nbsp; &amp;nbsp; &amp;nbsp; &amp;nbsp; &amp;nbsp; &amp;nbsp; &amp;nbsp; &amp;nbsp; &amp;nbsp; -&amp;gt;&lt;span style=&quot;color: #dcdcaa&quot;&gt;on&lt;/span&gt;(&lt;span style=&quot;color: #ce9178&quot;&gt;'cars'&lt;/span&gt;);&lt;/div&gt;&lt;div&gt;&amp;nbsp; &amp;nbsp; &amp;nbsp; &amp;nbsp; });&lt;/div&gt;&lt;div&gt;&amp;nbsp; &amp;nbsp; }&lt;/div&gt;&lt;br&gt;&lt;/div&gt;&lt;/div&gt;" style="text;html=1;strokeColor=#B09500;fillColor=#e3c800;align=center;verticalAlign=middle;whiteSpace=wrap;rounded=0;fontSize=10;fontColor=#000000;" vertex="1" parent="1">
                    <mxGeometry x="740" y="2100" width="460" height="210" as="geometry"/>
                </mxCell>
                <mxCell id="143" value="&lt;div style=&quot;text-align: left ; font-size: 12px&quot;&gt;&lt;div style=&quot;color: rgb(212 , 212 , 212) ; background-color: rgb(30 , 30 , 30) ; font-family: &amp;#34;consolas&amp;#34; , &amp;#34;courier new&amp;#34; , monospace ; font-size: 14px ; line-height: 19px&quot;&gt;&lt;div style=&quot;font-family: &amp;#34;consolas&amp;#34; , &amp;#34;courier new&amp;#34; , monospace ; line-height: 19px&quot;&gt;&lt;div style=&quot;font-family: &amp;#34;consolas&amp;#34; , &amp;#34;courier new&amp;#34; , monospace ; line-height: 19px&quot;&gt;&lt;div&gt;&amp;nbsp;&lt;span style=&quot;color: #569cd6&quot;&gt;public&lt;/span&gt; &lt;span style=&quot;color: #569cd6&quot;&gt;function&lt;/span&gt; &lt;span style=&quot;color: #dcdcaa&quot;&gt;down&lt;/span&gt;()&lt;/div&gt;&lt;div&gt;&amp;nbsp; &amp;nbsp; {&lt;/div&gt;&lt;div&gt;&amp;nbsp; &amp;nbsp; &amp;nbsp; &amp;nbsp; &lt;span style=&quot;color: #4ec9b0&quot;&gt;Schema&lt;/span&gt;::&lt;span style=&quot;color: #dcdcaa&quot;&gt;table&lt;/span&gt;(&lt;span style=&quot;color: #ce9178&quot;&gt;'cars'&lt;/span&gt;, &lt;span style=&quot;color: #569cd6&quot;&gt;function&lt;/span&gt; (&lt;span style=&quot;color: #4ec9b0&quot;&gt;Blueprint&lt;/span&gt; &lt;span style=&quot;color: #9cdcfe&quot;&gt;$table&lt;/span&gt;) {&lt;/div&gt;&lt;div&gt;&amp;nbsp; &amp;nbsp; &amp;nbsp; &amp;nbsp; &amp;nbsp; &amp;nbsp; &lt;span style=&quot;color: #9cdcfe&quot;&gt;$table&lt;/span&gt;-&amp;gt;&lt;span style=&quot;color: #dcdcaa&quot;&gt;dropForeign&lt;/span&gt;&lt;span style=&quot;font-family: &amp;#34;consolas&amp;#34; , &amp;#34;courier new&amp;#34; , monospace&quot;&gt;([&lt;/span&gt;&lt;span style=&quot;font-family: &amp;#34;consolas&amp;#34; , &amp;#34;courier new&amp;#34; , monospace ; color: rgb(206 , 145 , 120)&quot;&gt;'category_id'&lt;/span&gt;&lt;span style=&quot;font-family: &amp;#34;consolas&amp;#34; , &amp;#34;courier new&amp;#34; , monospace&quot;&gt;])&lt;/span&gt;;&lt;br&gt;&lt;/div&gt;&lt;div&gt;&amp;nbsp; &amp;nbsp; &amp;nbsp; &amp;nbsp; &amp;nbsp; &amp;nbsp; &lt;span style=&quot;color: #9cdcfe&quot;&gt;$table&lt;/span&gt;-&amp;gt;&lt;span style=&quot;color: #dcdcaa&quot;&gt;dropColumn&lt;/span&gt;(&lt;span style=&quot;color: #ce9178&quot;&gt;'category_id'&lt;/span&gt;);&lt;/div&gt;&lt;div&gt;&amp;nbsp; &amp;nbsp; &amp;nbsp; &amp;nbsp; &amp;nbsp; &amp;nbsp; &lt;span style=&quot;color: #9cdcfe&quot;&gt;$table&lt;/span&gt;-&amp;gt;&lt;span style=&quot;color: #dcdcaa&quot;&gt;dropColumn&lt;/span&gt;(&lt;span style=&quot;color: #ce9178&quot;&gt;&quot;image&quot;&lt;/span&gt;);&lt;/div&gt;&lt;div&gt;&amp;nbsp; &amp;nbsp; &amp;nbsp; &amp;nbsp; });&lt;/div&gt;&lt;div&gt;&amp;nbsp; &amp;nbsp; }&lt;/div&gt;&lt;/div&gt;&lt;/div&gt;&lt;/div&gt;&lt;/div&gt;" style="text;html=1;strokeColor=#B09500;fillColor=#e3c800;align=center;verticalAlign=middle;whiteSpace=wrap;rounded=0;fontSize=10;fontColor=#000000;" vertex="1" parent="1">
                    <mxGeometry x="740" y="2500" width="460" height="160" as="geometry"/>
                </mxCell>
                <mxCell id="145" value="&lt;font color=&quot;#ff9933&quot;&gt;NELLA DOWN PER PRIMA COSA DROPPARE LA FOREIGNKEY&lt;br&gt;POI DROPPARE LE COLONNE&lt;/font&gt;" style="text;html=1;align=center;verticalAlign=middle;resizable=0;points=[];autosize=1;strokeColor=none;fillColor=none;fontSize=12;fontColor=#FFFFFF;" vertex="1" parent="1">
                    <mxGeometry x="775" y="2460" width="370" height="30" as="geometry"/>
                </mxCell>
                <mxCell id="146" value="&lt;div style=&quot;text-align: left ; font-size: 12px&quot;&gt;&lt;div style=&quot;color: rgb(212 , 212 , 212) ; background-color: rgb(30 , 30 , 30) ; font-family: &amp;#34;consolas&amp;#34; , &amp;#34;courier new&amp;#34; , monospace ; font-size: 14px ; line-height: 19px&quot;&gt;&lt;div&gt;&lt;div style=&quot;font-family: &amp;#34;consolas&amp;#34; , &amp;#34;courier new&amp;#34; , monospace ; line-height: 19px&quot;&gt;&lt;div&gt;&amp;nbsp;&lt;span style=&quot;color: #9cdcfe&quot;&gt;$table&lt;/span&gt;-&amp;gt;&lt;span style=&quot;color: #dcdcaa&quot;&gt;foreignId&lt;/span&gt;(&lt;span style=&quot;color: #ce9178&quot;&gt;'category_id'&lt;/span&gt;)-&amp;gt;&lt;span style=&quot;color: #dcdcaa&quot;&gt;nullable&lt;/span&gt;()-&amp;gt;&lt;span style=&quot;color: #dcdcaa&quot;&gt;constrained&lt;/span&gt;()-&amp;gt;&lt;span style=&quot;color: #dcdcaa&quot;&gt;onDelete&lt;/span&gt;(&lt;span style=&quot;color: #ce9178&quot;&gt;'set null'&lt;/span&gt;);&lt;/div&gt;&lt;div&gt;&amp;nbsp; &amp;nbsp; &amp;nbsp; &amp;nbsp; &amp;nbsp; &amp;nbsp; &lt;span style=&quot;color: #9cdcfe&quot;&gt;$table&lt;/span&gt;-&amp;gt;&lt;span style=&quot;color: #dcdcaa&quot;&gt;string&lt;/span&gt;(&lt;span style=&quot;color: #ce9178&quot;&gt;&quot;image&quot;&lt;/span&gt;)-&amp;gt;&lt;span style=&quot;color: #dcdcaa&quot;&gt;nullable&lt;/span&gt;();&lt;/div&gt;&lt;/div&gt;&lt;/div&gt;&lt;/div&gt;&lt;/div&gt;" style="text;html=1;strokeColor=#B09500;fillColor=#e3c800;align=center;verticalAlign=middle;whiteSpace=wrap;rounded=0;fontSize=10;fontColor=#000000;" vertex="1" parent="1">
                    <mxGeometry x="740" y="2370" width="650" height="40" as="geometry"/>
                </mxCell>
                <mxCell id="147" value="FORMA ABBREVIATA" style="text;html=1;align=center;verticalAlign=middle;resizable=0;points=[];autosize=1;strokeColor=none;fillColor=none;fontSize=12;fontColor=#FF9933;" vertex="1" parent="1">
                    <mxGeometry x="905" y="2338" width="130" height="20" as="geometry"/>
                </mxCell>
                <mxCell id="149" style="edgeStyle=none;html=1;exitX=0.1;exitY=0.5;exitDx=0;exitDy=0;exitPerimeter=0;fontSize=12;fontColor=#FF9933;" edge="1" parent="1" source="148">
                    <mxGeometry relative="1" as="geometry">
                        <mxPoint x="880" y="2340" as="targetPoint"/>
                    </mxGeometry>
                </mxCell>
                <mxCell id="148" value="" style="shape=curlyBracket;whiteSpace=wrap;html=1;rounded=1;labelBackgroundColor=#1E1E1E;fontSize=12;fontColor=#FF9933;" vertex="1" parent="1">
                    <mxGeometry x="710" y="2270" width="20" height="120" as="geometry"/>
                </mxCell>
                <mxCell id="150" value="&lt;font style=&quot;font-size: 17px&quot; color=&quot;#ffffff&quot;&gt;RELAZIONE MOLTI A MOLTI&lt;/font&gt;" style="text;html=1;align=center;verticalAlign=middle;resizable=0;points=[];autosize=1;strokeColor=none;fillColor=none;fontSize=12;fontColor=#FF9933;" vertex="1" parent="1">
                    <mxGeometry x="500" y="4250" width="240" height="20" as="geometry"/>
                </mxCell>
                <mxCell id="151" value="Cars" style="shape=table;startSize=30;container=1;collapsible=1;childLayout=tableLayout;fixedRows=1;rowLines=0;fontStyle=1;align=center;resizeLast=1;" vertex="1" parent="1">
                    <mxGeometry x="300" y="4360" width="180" height="260" as="geometry"/>
                </mxCell>
                <mxCell id="152" value="" style="shape=partialRectangle;collapsible=0;dropTarget=0;pointerEvents=0;fillColor=none;top=0;left=0;bottom=1;right=0;points=[[0,0.5],[1,0.5]];portConstraint=eastwest;" vertex="1" parent="151">
                    <mxGeometry y="30" width="180" height="30" as="geometry"/>
                </mxCell>
                <mxCell id="153" value="PK" style="shape=partialRectangle;connectable=0;fillColor=none;top=0;left=0;bottom=0;right=0;fontStyle=1;overflow=hidden;" vertex="1" parent="152">
                    <mxGeometry width="30" height="30" as="geometry">
                        <mxRectangle width="30" height="30" as="alternateBounds"/>
                    </mxGeometry>
                </mxCell>
                <mxCell id="154" value="ID" style="shape=partialRectangle;connectable=0;fillColor=none;top=0;left=0;bottom=0;right=0;align=left;spacingLeft=6;fontStyle=5;overflow=hidden;" vertex="1" parent="152">
                    <mxGeometry x="30" width="150" height="30" as="geometry">
                        <mxRectangle width="150" height="30" as="alternateBounds"/>
                    </mxGeometry>
                </mxCell>
                <mxCell id="155" value="" style="shape=partialRectangle;collapsible=0;dropTarget=0;pointerEvents=0;fillColor=none;top=0;left=0;bottom=0;right=0;points=[[0,0.5],[1,0.5]];portConstraint=eastwest;" vertex="1" parent="151">
                    <mxGeometry y="60" width="180" height="30" as="geometry"/>
                </mxCell>
                <mxCell id="156" value="" style="shape=partialRectangle;connectable=0;fillColor=none;top=0;left=0;bottom=0;right=0;editable=1;overflow=hidden;" vertex="1" parent="155">
                    <mxGeometry width="30" height="30" as="geometry">
                        <mxRectangle width="30" height="30" as="alternateBounds"/>
                    </mxGeometry>
                </mxCell>
                <mxCell id="157" value="name" style="shape=partialRectangle;connectable=0;fillColor=none;top=0;left=0;bottom=0;right=0;align=left;spacingLeft=6;overflow=hidden;" vertex="1" parent="155">
                    <mxGeometry x="30" width="150" height="30" as="geometry">
                        <mxRectangle width="150" height="30" as="alternateBounds"/>
                    </mxGeometry>
                </mxCell>
                <mxCell id="158" value="" style="shape=partialRectangle;collapsible=0;dropTarget=0;pointerEvents=0;fillColor=none;top=0;left=0;bottom=0;right=0;points=[[0,0.5],[1,0.5]];portConstraint=eastwest;" vertex="1" parent="151">
                    <mxGeometry y="90" width="180" height="30" as="geometry"/>
                </mxCell>
                <mxCell id="159" value="" style="shape=partialRectangle;connectable=0;fillColor=none;top=0;left=0;bottom=0;right=0;editable=1;overflow=hidden;" vertex="1" parent="158">
                    <mxGeometry width="30" height="30" as="geometry">
                        <mxRectangle width="30" height="30" as="alternateBounds"/>
                    </mxGeometry>
                </mxCell>
                <mxCell id="160" value="model" style="shape=partialRectangle;connectable=0;fillColor=none;top=0;left=0;bottom=0;right=0;align=left;spacingLeft=6;overflow=hidden;" vertex="1" parent="158">
                    <mxGeometry x="30" width="150" height="30" as="geometry">
                        <mxRectangle width="150" height="30" as="alternateBounds"/>
                    </mxGeometry>
                </mxCell>
                <mxCell id="161" value="" style="shape=partialRectangle;collapsible=0;dropTarget=0;pointerEvents=0;fillColor=none;top=0;left=0;bottom=0;right=0;points=[[0,0.5],[1,0.5]];portConstraint=eastwest;" vertex="1" parent="151">
                    <mxGeometry y="120" width="180" height="30" as="geometry"/>
                </mxCell>
                <mxCell id="162" value="" style="shape=partialRectangle;connectable=0;fillColor=none;top=0;left=0;bottom=0;right=0;editable=1;overflow=hidden;" vertex="1" parent="161">
                    <mxGeometry width="30" height="30" as="geometry">
                        <mxRectangle width="30" height="30" as="alternateBounds"/>
                    </mxGeometry>
                </mxCell>
                <mxCell id="163" value="slug" style="shape=partialRectangle;connectable=0;fillColor=none;top=0;left=0;bottom=0;right=0;align=left;spacingLeft=6;overflow=hidden;" vertex="1" parent="161">
                    <mxGeometry x="30" width="150" height="30" as="geometry">
                        <mxRectangle width="150" height="30" as="alternateBounds"/>
                    </mxGeometry>
                </mxCell>
                <mxCell id="164" value="" style="shape=partialRectangle;collapsible=0;dropTarget=0;pointerEvents=0;fillColor=none;top=0;left=0;bottom=0;right=0;points=[[0,0.5],[1,0.5]];portConstraint=eastwest;" vertex="1" parent="151">
                    <mxGeometry y="150" width="180" height="30" as="geometry"/>
                </mxCell>
                <mxCell id="165" value="" style="shape=partialRectangle;connectable=0;fillColor=none;top=0;left=0;bottom=0;right=0;editable=1;overflow=hidden;" vertex="1" parent="164">
                    <mxGeometry width="30" height="30" as="geometry">
                        <mxRectangle width="30" height="30" as="alternateBounds"/>
                    </mxGeometry>
                </mxCell>
                <mxCell id="166" value="description" style="shape=partialRectangle;connectable=0;fillColor=none;top=0;left=0;bottom=0;right=0;align=left;spacingLeft=6;overflow=hidden;" vertex="1" parent="164">
                    <mxGeometry x="30" width="150" height="30" as="geometry">
                        <mxRectangle width="150" height="30" as="alternateBounds"/>
                    </mxGeometry>
                </mxCell>
                <mxCell id="167" value="" style="shape=partialRectangle;collapsible=0;dropTarget=0;pointerEvents=0;fillColor=none;top=0;left=0;bottom=0;right=0;points=[[0,0.5],[1,0.5]];portConstraint=eastwest;" vertex="1" parent="151">
                    <mxGeometry y="180" width="180" height="40" as="geometry"/>
                </mxCell>
                <mxCell id="168" value="" style="shape=partialRectangle;connectable=0;fillColor=none;top=0;left=0;bottom=0;right=0;editable=1;overflow=hidden;" vertex="1" parent="167">
                    <mxGeometry width="30" height="40" as="geometry">
                        <mxRectangle width="30" height="40" as="alternateBounds"/>
                    </mxGeometry>
                </mxCell>
                <mxCell id="169" value="avaiable" style="shape=partialRectangle;connectable=0;fillColor=none;top=0;left=0;bottom=0;right=0;align=left;spacingLeft=6;overflow=hidden;" vertex="1" parent="167">
                    <mxGeometry x="30" width="150" height="40" as="geometry">
                        <mxRectangle width="150" height="40" as="alternateBounds"/>
                    </mxGeometry>
                </mxCell>
                <mxCell id="170" value="" style="shape=partialRectangle;collapsible=0;dropTarget=0;pointerEvents=0;fillColor=none;top=0;left=0;bottom=0;right=0;points=[[0,0.5],[1,0.5]];portConstraint=eastwest;" vertex="1" parent="151">
                    <mxGeometry y="220" width="180" height="30" as="geometry"/>
                </mxCell>
                <mxCell id="171" value="FK" style="shape=partialRectangle;connectable=0;fillColor=none;top=0;left=0;bottom=0;right=0;editable=1;overflow=hidden;" vertex="1" parent="170">
                    <mxGeometry width="30" height="30" as="geometry">
                        <mxRectangle width="30" height="30" as="alternateBounds"/>
                    </mxGeometry>
                </mxCell>
                <mxCell id="172" value="category_id" style="shape=partialRectangle;connectable=0;fillColor=none;top=0;left=0;bottom=0;right=0;align=left;spacingLeft=6;overflow=hidden;" vertex="1" parent="170">
                    <mxGeometry x="30" width="150" height="30" as="geometry">
                        <mxRectangle width="150" height="30" as="alternateBounds"/>
                    </mxGeometry>
                </mxCell>
                <mxCell id="173" value="Categories" style="shape=table;startSize=30;container=1;collapsible=1;childLayout=tableLayout;fixedRows=1;rowLines=0;fontStyle=1;align=center;resizeLast=1;" vertex="1" parent="1">
                    <mxGeometry x="790" y="4360" width="180" height="130" as="geometry"/>
                </mxCell>
                <mxCell id="174" value="" style="shape=partialRectangle;collapsible=0;dropTarget=0;pointerEvents=0;fillColor=none;top=0;left=0;bottom=1;right=0;points=[[0,0.5],[1,0.5]];portConstraint=eastwest;" vertex="1" parent="173">
                    <mxGeometry y="30" width="180" height="30" as="geometry"/>
                </mxCell>
                <mxCell id="175" value="PK" style="shape=partialRectangle;connectable=0;fillColor=none;top=0;left=0;bottom=0;right=0;fontStyle=1;overflow=hidden;" vertex="1" parent="174">
                    <mxGeometry width="30" height="30" as="geometry">
                        <mxRectangle width="30" height="30" as="alternateBounds"/>
                    </mxGeometry>
                </mxCell>
                <mxCell id="176" value="ID" style="shape=partialRectangle;connectable=0;fillColor=none;top=0;left=0;bottom=0;right=0;align=left;spacingLeft=6;fontStyle=5;overflow=hidden;" vertex="1" parent="174">
                    <mxGeometry x="30" width="150" height="30" as="geometry">
                        <mxRectangle width="150" height="30" as="alternateBounds"/>
                    </mxGeometry>
                </mxCell>
                <mxCell id="177" value="" style="shape=partialRectangle;collapsible=0;dropTarget=0;pointerEvents=0;fillColor=none;top=0;left=0;bottom=0;right=0;points=[[0,0.5],[1,0.5]];portConstraint=eastwest;" vertex="1" parent="173">
                    <mxGeometry y="60" width="180" height="30" as="geometry"/>
                </mxCell>
                <mxCell id="178" value="" style="shape=partialRectangle;connectable=0;fillColor=none;top=0;left=0;bottom=0;right=0;editable=1;overflow=hidden;" vertex="1" parent="177">
                    <mxGeometry width="30" height="30" as="geometry">
                        <mxRectangle width="30" height="30" as="alternateBounds"/>
                    </mxGeometry>
                </mxCell>
                <mxCell id="179" value="name" style="shape=partialRectangle;connectable=0;fillColor=none;top=0;left=0;bottom=0;right=0;align=left;spacingLeft=6;overflow=hidden;" vertex="1" parent="177">
                    <mxGeometry x="30" width="150" height="30" as="geometry">
                        <mxRectangle width="150" height="30" as="alternateBounds"/>
                    </mxGeometry>
                </mxCell>
                <mxCell id="180" value="" style="shape=partialRectangle;collapsible=0;dropTarget=0;pointerEvents=0;fillColor=none;top=0;left=0;bottom=0;right=0;points=[[0,0.5],[1,0.5]];portConstraint=eastwest;" vertex="1" parent="173">
                    <mxGeometry y="90" width="180" height="30" as="geometry"/>
                </mxCell>
                <mxCell id="181" value="" style="shape=partialRectangle;connectable=0;fillColor=none;top=0;left=0;bottom=0;right=0;editable=1;overflow=hidden;" vertex="1" parent="180">
                    <mxGeometry width="30" height="30" as="geometry">
                        <mxRectangle width="30" height="30" as="alternateBounds"/>
                    </mxGeometry>
                </mxCell>
                <mxCell id="182" value="slug" style="shape=partialRectangle;connectable=0;fillColor=none;top=0;left=0;bottom=0;right=0;align=left;spacingLeft=6;overflow=hidden;" vertex="1" parent="180">
                    <mxGeometry x="30" width="150" height="30" as="geometry">
                        <mxRectangle width="150" height="30" as="alternateBounds"/>
                    </mxGeometry>
                </mxCell>
                <mxCell id="183" value="&lt;h1&gt;relazione molti a molti&lt;/h1&gt;&lt;div&gt;TABELLA PONTE&lt;/div&gt;&lt;div&gt;&lt;font color=&quot;#ffff00&quot;&gt;php artisan make:migration create_car_tag_table&lt;/font&gt;&lt;/div&gt;&lt;div&gt;&lt;font color=&quot;#ffff00&quot;&gt;&lt;br&gt;&lt;/font&gt;&lt;/div&gt;&lt;div&gt;creare la tabella con i nomi tabella al singolare (nome-tabella + _ + nome-tabella)&lt;/div&gt;&lt;div&gt;&lt;br&gt;&lt;/div&gt;&lt;div&gt;&lt;div&gt;creare Model + migration&amp;nbsp;&lt;font color=&quot;#ffff00&quot;&gt;php artisan make:model Tag -m&lt;/font&gt;&lt;/div&gt;&lt;div&gt;&lt;font color=&quot;#ffff00&quot;&gt;&lt;br&gt;&lt;/font&gt;&lt;/div&gt;&lt;div&gt;&lt;font color=&quot;#ffff00&quot;&gt;migration&lt;/font&gt;&lt;/div&gt;&lt;div&gt;&lt;div style=&quot;color: rgb(212 , 212 , 212) ; background-color: rgb(30 , 30 , 30) ; font-family: &amp;#34;consolas&amp;#34; , &amp;#34;courier new&amp;#34; , monospace ; font-size: 14px ; line-height: 19px&quot;&gt;&lt;div&gt;&lt;span style=&quot;color: #569cd6&quot;&gt;public&lt;/span&gt; &lt;span style=&quot;color: #569cd6&quot;&gt;function&lt;/span&gt; &lt;span style=&quot;color: #dcdcaa&quot;&gt;up&lt;/span&gt;()&lt;/div&gt;&lt;div&gt;&amp;nbsp; &amp;nbsp; {&lt;/div&gt;&lt;div&gt;&amp;nbsp; &amp;nbsp; &amp;nbsp; &amp;nbsp; &lt;span style=&quot;color: #4ec9b0&quot;&gt;Schema&lt;/span&gt;::&lt;span style=&quot;color: #dcdcaa&quot;&gt;create&lt;/span&gt;(&lt;span style=&quot;color: #ce9178&quot;&gt;'tags'&lt;/span&gt;, &lt;span style=&quot;color: #569cd6&quot;&gt;function&lt;/span&gt; (&lt;span style=&quot;color: #4ec9b0&quot;&gt;Blueprint&lt;/span&gt; &lt;span style=&quot;color: #9cdcfe&quot;&gt;$table&lt;/span&gt;) {&lt;/div&gt;&lt;div&gt;&amp;nbsp; &amp;nbsp; &amp;nbsp; &amp;nbsp; &amp;nbsp; &amp;nbsp; &lt;span style=&quot;color: #9cdcfe&quot;&gt;$table&lt;/span&gt;-&amp;gt;&lt;span style=&quot;color: #dcdcaa&quot;&gt;id&lt;/span&gt;();&lt;/div&gt;&lt;div&gt;&amp;nbsp; &amp;nbsp; &amp;nbsp; &amp;nbsp; &amp;nbsp; &amp;nbsp; &lt;span style=&quot;color: #9cdcfe&quot;&gt;$table&lt;/span&gt;-&amp;gt;&lt;span style=&quot;color: #dcdcaa&quot;&gt;string&lt;/span&gt;(&lt;span style=&quot;color: #ce9178&quot;&gt;'name'&lt;/span&gt;, &lt;span style=&quot;color: #b5cea8&quot;&gt;100&lt;/span&gt;);&lt;/div&gt;&lt;div&gt;&amp;nbsp; &amp;nbsp; &amp;nbsp; &amp;nbsp; &amp;nbsp; &amp;nbsp; &lt;span style=&quot;color: #9cdcfe&quot;&gt;$table&lt;/span&gt;-&amp;gt;&lt;span style=&quot;color: #dcdcaa&quot;&gt;string&lt;/span&gt;(&lt;span style=&quot;color: #ce9178&quot;&gt;'slug'&lt;/span&gt;, &lt;span style=&quot;color: #b5cea8&quot;&gt;150&lt;/span&gt;)-&amp;gt;&lt;span style=&quot;color: #dcdcaa&quot;&gt;unique&lt;/span&gt;();&lt;/div&gt;&lt;div&gt;&amp;nbsp; &amp;nbsp; &amp;nbsp; &amp;nbsp; &amp;nbsp; &amp;nbsp; &lt;span style=&quot;color: #9cdcfe&quot;&gt;$table&lt;/span&gt;-&amp;gt;&lt;span style=&quot;color: #dcdcaa&quot;&gt;timestamps&lt;/span&gt;();&lt;/div&gt;&lt;div&gt;&amp;nbsp; &amp;nbsp; &amp;nbsp; &amp;nbsp; });&lt;/div&gt;&lt;div&gt;&amp;nbsp; &amp;nbsp; }&lt;/div&gt;&lt;/div&gt;&lt;/div&gt;&lt;div&gt;edito la migration e la lancio&amp;nbsp;&lt;font color=&quot;#ffff00&quot;&gt;php artisan migrate&lt;/font&gt;&lt;/div&gt;&lt;/div&gt;&lt;div&gt;&lt;font color=&quot;#ffff00&quot;&gt;&lt;br&gt;&lt;/font&gt;&lt;/div&gt;&lt;div&gt;&lt;div&gt;creare il seeder&amp;nbsp;&lt;font color=&quot;#ffff00&quot;&gt;php artisan make:seeder TagsTableSeeder&lt;/font&gt;&lt;/div&gt;&lt;div&gt;importa nel seeder il model e&lt;font color=&quot;#ffff00&quot;&gt;&amp;nbsp;&lt;/font&gt;popola il seeder&amp;nbsp;&lt;/div&gt;&lt;div&gt;&lt;div style=&quot;color: rgb(212 , 212 , 212) ; background-color: rgb(30 , 30 , 30) ; font-family: &amp;#34;consolas&amp;#34; , &amp;#34;courier new&amp;#34; , monospace ; font-size: 14px ; line-height: 19px&quot;&gt;&lt;div&gt;&lt;span style=&quot;color: #569cd6&quot;&gt;public&lt;/span&gt; &lt;span style=&quot;color: #569cd6&quot;&gt;function&lt;/span&gt; &lt;span style=&quot;color: #dcdcaa&quot;&gt;run&lt;/span&gt;()&lt;/div&gt;&lt;div&gt;&amp;nbsp; &amp;nbsp; {&lt;/div&gt;&lt;div&gt;&amp;nbsp; &amp;nbsp; &amp;nbsp; &amp;nbsp; &lt;span style=&quot;color: #9cdcfe&quot;&gt;$tags&lt;/span&gt; = [&lt;span style=&quot;color: #ce9178&quot;&gt;'sportiva'&lt;/span&gt;, &lt;span style=&quot;color: #ce9178&quot;&gt;'berlina'&lt;/span&gt;, &lt;span style=&quot;color: #ce9178&quot;&gt;'4x4'&lt;/span&gt;, &lt;span style=&quot;color: #ce9178&quot;&gt;'cabrio'&lt;/span&gt;, &lt;span style=&quot;color: #ce9178&quot;&gt;'automatica'&lt;/span&gt;];&lt;/div&gt;&lt;br&gt;&lt;div&gt;&amp;nbsp; &amp;nbsp; &amp;nbsp; &amp;nbsp; &lt;span style=&quot;color: #c586c0&quot;&gt;for&lt;/span&gt;(&lt;span style=&quot;color: #9cdcfe&quot;&gt;$i&lt;/span&gt; = &lt;span style=&quot;color: #b5cea8&quot;&gt;0&lt;/span&gt;; &lt;span style=&quot;color: #9cdcfe&quot;&gt;$i&lt;/span&gt; &amp;lt; &lt;span style=&quot;color: #dcdcaa&quot;&gt;count&lt;/span&gt;(&lt;span style=&quot;color: #9cdcfe&quot;&gt;$tags&lt;/span&gt;); &lt;span style=&quot;color: #9cdcfe&quot;&gt;$i&lt;/span&gt;++){&lt;/div&gt;&lt;div&gt;&amp;nbsp; &amp;nbsp; &amp;nbsp; &amp;nbsp; &amp;nbsp; &amp;nbsp; &lt;span style=&quot;color: #9cdcfe&quot;&gt;$newTag&lt;/span&gt; = &lt;span style=&quot;color: #569cd6&quot;&gt;new&lt;/span&gt; &lt;span style=&quot;color: #4ec9b0&quot;&gt;Tag&lt;/span&gt;();&lt;/div&gt;&lt;div&gt;&amp;nbsp; &amp;nbsp; &amp;nbsp; &amp;nbsp; &amp;nbsp; &amp;nbsp; &lt;span style=&quot;color: #9cdcfe&quot;&gt;$newTag&lt;/span&gt;-&amp;gt;&lt;span style=&quot;color: #9cdcfe&quot;&gt;name&lt;/span&gt; = &lt;span style=&quot;color: #9cdcfe&quot;&gt;$tags&lt;/span&gt;[&lt;span style=&quot;color: #9cdcfe&quot;&gt;$i&lt;/span&gt;];&lt;/div&gt;&lt;div&gt;&amp;nbsp; &amp;nbsp; &amp;nbsp; &amp;nbsp; &amp;nbsp; &amp;nbsp; &lt;span style=&quot;color: #9cdcfe&quot;&gt;$newTag&lt;/span&gt;-&amp;gt;&lt;span style=&quot;color: #9cdcfe&quot;&gt;slug&lt;/span&gt; = &lt;span style=&quot;color: #4ec9b0&quot;&gt;Str&lt;/span&gt;::&lt;span style=&quot;color: #dcdcaa&quot;&gt;of&lt;/span&gt;(&lt;span style=&quot;color: #9cdcfe&quot;&gt;$newTag&lt;/span&gt;-&amp;gt;&lt;span style=&quot;color: #9cdcfe&quot;&gt;name&lt;/span&gt;)-&amp;gt;&lt;span style=&quot;color: #dcdcaa&quot;&gt;slug&lt;/span&gt;(&lt;span style=&quot;color: #ce9178&quot;&gt;'-'&lt;/span&gt;);&lt;/div&gt;&lt;div&gt;&amp;nbsp; &amp;nbsp; &amp;nbsp; &amp;nbsp; &amp;nbsp; &amp;nbsp; &lt;span style=&quot;color: #6a9955&quot;&gt;// Str::slug($newTag-&amp;gt;name);&lt;/span&gt;&lt;/div&gt;&lt;br&gt;&lt;div&gt;&amp;nbsp; &amp;nbsp; &amp;nbsp; &amp;nbsp; &amp;nbsp; &amp;nbsp; &lt;span style=&quot;color: #9cdcfe&quot;&gt;$newTag&lt;/span&gt;-&amp;gt;&lt;span style=&quot;color: #dcdcaa&quot;&gt;save&lt;/span&gt;();&lt;/div&gt;&lt;div&gt;&amp;nbsp; &amp;nbsp; &amp;nbsp; &amp;nbsp; }&lt;/div&gt;&lt;div&gt;&amp;nbsp; &amp;nbsp; }&lt;/div&gt;&lt;div&gt;}&lt;/div&gt;&lt;/div&gt;&lt;/div&gt;&lt;div&gt;&lt;br&gt;&lt;/div&gt;&lt;div&gt;lancia il seeder&amp;nbsp;&lt;font color=&quot;#ffff00&quot;&gt;php artisan db:seed --class&amp;nbsp;&lt;/font&gt;&lt;span style=&quot;color: rgb(255 , 255 , 0)&quot;&gt;TagsTableSeeder&lt;/span&gt;&lt;/div&gt;&lt;/div&gt;&lt;div&gt;&lt;font color=&quot;#ffff00&quot;&gt;&lt;br&gt;&lt;/font&gt;&lt;/div&gt;&lt;div&gt;modifiche al model creare relazione tra tabelle&lt;/div&gt;&lt;div&gt;&lt;div style=&quot;color: rgb(212 , 212 , 212) ; background-color: rgb(30 , 30 , 30) ; font-family: &amp;#34;consolas&amp;#34; , &amp;#34;courier new&amp;#34; , monospace ; font-size: 14px ; line-height: 19px&quot;&gt;&lt;div&gt;&amp;nbsp;&lt;span style=&quot;color: #569cd6&quot;&gt;public&lt;/span&gt; &lt;span style=&quot;color: #569cd6&quot;&gt;function&lt;/span&gt; &lt;span style=&quot;color: #dcdcaa&quot;&gt;posts&lt;/span&gt;(){&lt;/div&gt;&lt;div&gt;&amp;nbsp; &amp;nbsp; &amp;nbsp; &amp;nbsp; &lt;span style=&quot;color: #c586c0&quot;&gt;return&lt;/span&gt; &lt;span style=&quot;color: #569cd6&quot;&gt;$this&lt;/span&gt;-&amp;gt;&lt;span style=&quot;color: #dcdcaa&quot;&gt;belongsToMany&lt;/span&gt;(&lt;span style=&quot;color: #ce9178&quot;&gt;'App\Car'&lt;/span&gt;);&lt;/div&gt;&lt;div&gt;&amp;nbsp; &amp;nbsp; }&lt;/div&gt;&lt;/div&gt;&lt;/div&gt;&lt;div&gt;&lt;font color=&quot;#ffff00&quot;&gt;&lt;br&gt;&lt;/font&gt;&lt;/div&gt;&lt;div&gt;creare tabella ponte&lt;/div&gt;&lt;div&gt;&lt;font color=&quot;#ffff00&quot;&gt;php artisan make:migration create_car_tag_table&lt;/font&gt;&lt;/div&gt;&lt;div&gt;&lt;div style=&quot;color: rgb(212 , 212 , 212) ; background-color: rgb(30 , 30 , 30) ; font-family: &amp;#34;consolas&amp;#34; , &amp;#34;courier new&amp;#34; , monospace ; font-size: 14px ; line-height: 19px&quot;&gt;&lt;div&gt;&lt;span style=&quot;color: #569cd6&quot;&gt;public&lt;/span&gt; &lt;span style=&quot;color: #569cd6&quot;&gt;function&lt;/span&gt; &lt;span style=&quot;color: #dcdcaa&quot;&gt;up&lt;/span&gt;()&lt;/div&gt;&lt;div&gt;&amp;nbsp; &amp;nbsp; {&lt;/div&gt;&lt;div&gt;&amp;nbsp; &amp;nbsp; &amp;nbsp; &amp;nbsp; &lt;span style=&quot;color: #4ec9b0&quot;&gt;Schema&lt;/span&gt;::&lt;span style=&quot;color: #dcdcaa&quot;&gt;create&lt;/span&gt;(&lt;span style=&quot;color: #ce9178&quot;&gt;'car_tag'&lt;/span&gt;, &lt;span style=&quot;color: #569cd6&quot;&gt;function&lt;/span&gt; (&lt;span style=&quot;color: #4ec9b0&quot;&gt;Blueprint&lt;/span&gt; &lt;span style=&quot;color: #9cdcfe&quot;&gt;$table&lt;/span&gt;) {&lt;/div&gt;&lt;div&gt;&amp;nbsp; &amp;nbsp; &amp;nbsp; &amp;nbsp; &amp;nbsp; &amp;nbsp; &lt;span style=&quot;color: #9cdcfe&quot;&gt;$table&lt;/span&gt;-&amp;gt;&lt;span style=&quot;color: #dcdcaa&quot;&gt;id&lt;/span&gt;();&lt;/div&gt;&lt;div&gt;&amp;nbsp; &amp;nbsp; &amp;nbsp; &amp;nbsp; &amp;nbsp; &amp;nbsp; &lt;span style=&quot;color: #9cdcfe&quot;&gt;$table&lt;/span&gt;-&amp;gt;&lt;span style=&quot;color: #dcdcaa&quot;&gt;foreignId&lt;/span&gt;(&lt;span style=&quot;color: #ce9178&quot;&gt;'car_id'&lt;/span&gt;)-&amp;gt;&lt;span style=&quot;color: #dcdcaa&quot;&gt;constrained&lt;/span&gt;()-&amp;gt;&lt;span style=&quot;color: #dcdcaa&quot;&gt;onDelete&lt;/span&gt;(&lt;span style=&quot;color: #ce9178&quot;&gt;'cascade'&lt;/span&gt;);&lt;/div&gt;&lt;div&gt;&amp;nbsp; &amp;nbsp; &amp;nbsp; &amp;nbsp; &amp;nbsp; &amp;nbsp; &lt;span style=&quot;color: #9cdcfe&quot;&gt;$table&lt;/span&gt;-&amp;gt;&lt;span style=&quot;color: #dcdcaa&quot;&gt;foreignId&lt;/span&gt;(&lt;span style=&quot;color: #ce9178&quot;&gt;'tag_id'&lt;/span&gt;)-&amp;gt;&lt;span style=&quot;color: #dcdcaa&quot;&gt;constrained&lt;/span&gt;()-&amp;gt;&lt;span style=&quot;color: #dcdcaa&quot;&gt;onDelete&lt;/span&gt;(&lt;span style=&quot;color: #ce9178&quot;&gt;'cascade'&lt;/span&gt;);&lt;/div&gt;&lt;div&gt;&amp;nbsp; &amp;nbsp; &amp;nbsp; &amp;nbsp; &amp;nbsp; &amp;nbsp; &lt;span style=&quot;color: #6a9955&quot;&gt;// $table-&amp;gt;timestamps();&lt;/span&gt;&lt;/div&gt;&lt;div&gt;&amp;nbsp; &amp;nbsp; &amp;nbsp; &amp;nbsp; });&lt;/div&gt;&lt;div&gt;&amp;nbsp; &amp;nbsp; }&lt;/div&gt;&lt;/div&gt;&lt;/div&gt;&lt;div&gt;lanciare&lt;/div&gt;&lt;div&gt;&lt;font color=&quot;#ffff00&quot;&gt;php artisan migrate&lt;br&gt;&lt;/font&gt;&lt;/div&gt;&lt;div&gt;&lt;font color=&quot;#ffff00&quot;&gt;&lt;br&gt;&lt;/font&gt;&lt;/div&gt;&lt;div&gt;nel controler importare model&lt;/div&gt;&lt;div&gt;&lt;div style=&quot;color: rgb(212 , 212 , 212) ; background-color: rgb(30 , 30 , 30) ; font-family: &amp;#34;consolas&amp;#34; , &amp;#34;courier new&amp;#34; , monospace ; font-size: 14px ; line-height: 19px&quot;&gt;&lt;span style=&quot;color: #569cd6&quot;&gt;use&lt;/span&gt; App\&lt;span style=&quot;color: #4ec9b0&quot;&gt;Tag&lt;/span&gt;&lt;/div&gt;&lt;/div&gt;&lt;div&gt;e tag nella create&lt;/div&gt;&lt;div&gt;&lt;div style=&quot;color: rgb(212 , 212 , 212) ; background-color: rgb(30 , 30 , 30) ; font-family: &amp;#34;consolas&amp;#34; , &amp;#34;courier new&amp;#34; , monospace ; font-size: 14px ; line-height: 19px&quot;&gt;&lt;span style=&quot;color: #9cdcfe&quot;&gt;$tags&lt;/span&gt; = &lt;span style=&quot;color: #4ec9b0&quot;&gt;Tag&lt;/span&gt;::&lt;span style=&quot;color: #dcdcaa&quot;&gt;all&lt;/span&gt;();&lt;/div&gt;&lt;/div&gt;&lt;div&gt;&lt;font color=&quot;#ffff00&quot;&gt;&lt;br&gt;&lt;/font&gt;&lt;/div&gt;&lt;div&gt;modificare la store per vedere cosa ritorna&lt;/div&gt;&lt;div&gt;&lt;div style=&quot;color: rgb(212 , 212 , 212) ; background-color: rgb(30 , 30 , 30) ; font-family: &amp;#34;consolas&amp;#34; , &amp;#34;courier new&amp;#34; , monospace ; font-size: 14px ; line-height: 19px&quot;&gt;&lt;span style=&quot;color: #dcdcaa&quot;&gt;dd&lt;/span&gt;(&lt;span style=&quot;color: #9cdcfe&quot;&gt;$data&lt;/span&gt;);&lt;/div&gt;&lt;/div&gt;&lt;div&gt;&lt;font color=&quot;#ffff00&quot;&gt;&amp;nbsp;&lt;/font&gt;&lt;/div&gt;&lt;div&gt;controllo se esiste il tags&lt;/div&gt;&lt;div&gt;&lt;div style=&quot;color: rgb(212 , 212 , 212) ; background-color: rgb(30 , 30 , 30) ; font-family: &amp;#34;consolas&amp;#34; , &amp;#34;courier new&amp;#34; , monospace ; font-size: 14px ; line-height: 19px&quot;&gt;&lt;div&gt;&lt;span style=&quot;color: #c586c0&quot;&gt;if&lt;/span&gt;(&lt;span style=&quot;color: #dcdcaa&quot;&gt;isset&lt;/span&gt;(&lt;span style=&quot;color: #9cdcfe&quot;&gt;$data&lt;/span&gt;[&lt;span style=&quot;color: #ce9178&quot;&gt;'tags'&lt;/span&gt;])){&lt;/div&gt;&lt;div&gt;&amp;nbsp; &amp;nbsp; &amp;nbsp; &amp;nbsp; &amp;nbsp; &amp;nbsp; &lt;span style=&quot;color: #9cdcfe&quot;&gt;$newCar&lt;/span&gt;-&amp;gt;&lt;span style=&quot;color: #dcdcaa&quot;&gt;tags&lt;/span&gt;()-&amp;gt;&lt;span style=&quot;color: #dcdcaa&quot;&gt;sync&lt;/span&gt;(&lt;span style=&quot;color: #9cdcfe&quot;&gt;$data&lt;/span&gt;[&lt;span style=&quot;color: #ce9178&quot;&gt;'tags'&lt;/span&gt;]);&lt;/div&gt;&lt;div&gt;&amp;nbsp; &amp;nbsp; &amp;nbsp; &amp;nbsp; }&lt;/div&gt;&lt;/div&gt;&lt;/div&gt;&lt;div&gt;&lt;font color=&quot;#ffff00&quot;&gt;&lt;br&gt;&lt;/font&gt;&lt;/div&gt;&lt;div&gt;riprendere i dati da visualizzare nella show&lt;/div&gt;&lt;div&gt;&lt;div style=&quot;color: rgb(212 , 212 , 212) ; background-color: rgb(30 , 30 , 30) ; font-family: &amp;#34;consolas&amp;#34; , &amp;#34;courier new&amp;#34; , monospace ; font-size: 14px ; line-height: 19px&quot;&gt;&lt;div&gt;&lt;span style=&quot;color: #808080&quot;&gt;&amp;lt;&lt;/span&gt;&lt;span style=&quot;color: #569cd6&quot;&gt;ul&lt;/span&gt;&lt;span style=&quot;color: #808080&quot;&gt;&amp;gt;&lt;/span&gt;&lt;/div&gt;&lt;div&gt;&amp;nbsp; &amp;nbsp; &amp;nbsp; &amp;nbsp; &lt;span style=&quot;color: #569cd6&quot;&gt;@foreach&lt;/span&gt;(&lt;span style=&quot;color: #9cdcfe&quot;&gt;$car&lt;/span&gt;-&amp;gt;&lt;span style=&quot;color: #9cdcfe&quot;&gt;tags&lt;/span&gt; as &lt;span style=&quot;color: #9cdcfe&quot;&gt;$item&lt;/span&gt;)&lt;/div&gt;&lt;div&gt;&amp;nbsp; &amp;nbsp; &amp;nbsp; &amp;nbsp; &amp;nbsp; &amp;nbsp; &lt;span style=&quot;color: #808080&quot;&gt;&amp;lt;&lt;/span&gt;&lt;span style=&quot;color: #569cd6&quot;&gt;li&lt;/span&gt;&lt;span style=&quot;color: #808080&quot;&gt;&amp;gt;&lt;/span&gt;&lt;span style=&quot;color: #dcdcaa&quot;&gt;{{&lt;/span&gt;&lt;span style=&quot;color: #9cdcfe&quot;&gt;$item&lt;/span&gt;-&amp;gt;&lt;span style=&quot;color: #9cdcfe&quot;&gt;name&lt;/span&gt;&lt;span style=&quot;color: #dcdcaa&quot;&gt;}}&lt;/span&gt;&lt;span style=&quot;color: #808080&quot;&gt;&amp;lt;/&lt;/span&gt;&lt;span style=&quot;color: #569cd6&quot;&gt;li&lt;/span&gt;&lt;span style=&quot;color: #808080&quot;&gt;&amp;gt;&lt;/span&gt;&lt;/div&gt;&lt;div&gt;&amp;nbsp; &amp;nbsp; &amp;nbsp; &amp;nbsp; &lt;span style=&quot;color: #569cd6&quot;&gt;@endforeach&lt;/span&gt;&lt;/div&gt;&lt;div&gt;&amp;nbsp; &amp;nbsp; &lt;span style=&quot;color: #808080&quot;&gt;&amp;lt;/&lt;/span&gt;&lt;span style=&quot;color: #569cd6&quot;&gt;ul&lt;/span&gt;&lt;span style=&quot;color: #808080&quot;&gt;&amp;gt;&lt;/span&gt;&lt;/div&gt;&lt;/div&gt;&lt;/div&gt;&lt;div&gt;&lt;font color=&quot;#ffff00&quot;&gt;&lt;br&gt;&lt;/font&gt;&lt;/div&gt;&lt;div&gt;Creare rispettivi controller per le tabelle&amp;nbsp;&lt;/div&gt;&lt;div&gt;&lt;br&gt;&lt;/div&gt;&lt;div&gt;CATEGORY&lt;/div&gt;&lt;div&gt;&lt;font color=&quot;#ffff00&quot;&gt;php artisan make:controller --resource Admin/CategoryController&lt;/font&gt;&lt;/div&gt;&lt;div&gt;&lt;font color=&quot;#ffff00&quot;&gt;&lt;br&gt;&lt;/font&gt;&lt;/div&gt;&lt;div&gt;TAG&lt;/div&gt;&lt;div&gt;&lt;div&gt;&lt;font color=&quot;#ffff00&quot;&gt;php artisan make:controller --resource Admin/TagController&lt;/font&gt;&lt;/div&gt;&lt;/div&gt;&lt;div&gt;&lt;font color=&quot;#ffff00&quot;&gt;&lt;br&gt;&lt;/font&gt;&lt;/div&gt;&lt;div&gt;aggiungi le rotte su web.php&lt;/div&gt;&lt;div&gt;&lt;div style=&quot;color: rgb(212 , 212 , 212) ; background-color: rgb(30 , 30 , 30) ; font-family: &amp;#34;consolas&amp;#34; , &amp;#34;courier new&amp;#34; , monospace ; font-size: 14px ; line-height: 19px&quot;&gt;&lt;div&gt;&lt;span style=&quot;color: #4ec9b0&quot;&gt;Route&lt;/span&gt;::&lt;span style=&quot;color: #dcdcaa&quot;&gt;resource&lt;/span&gt;(&lt;span style=&quot;color: #ce9178&quot;&gt;'/categories'&lt;/span&gt;, &lt;span style=&quot;color: #ce9178&quot;&gt;'CategoryController'&lt;/span&gt;);&lt;/div&gt;&lt;div&gt;&amp;nbsp; &amp;nbsp; &lt;span style=&quot;color: #4ec9b0&quot;&gt;Route&lt;/span&gt;::&lt;span style=&quot;color: #dcdcaa&quot;&gt;resource&lt;/span&gt;(&lt;span style=&quot;color: #ce9178&quot;&gt;'/tags'&lt;/span&gt;, &lt;span style=&quot;color: #ce9178&quot;&gt;'TagController'&lt;/span&gt;);&lt;/div&gt;&lt;/div&gt;&lt;/div&gt;&lt;div&gt;&lt;br&gt;&lt;/div&gt;&lt;div&gt;controlla i nomi&lt;/div&gt;&lt;div&gt;&lt;font color=&quot;#ffff00&quot;&gt;php artisan route:list&lt;br&gt;&lt;/font&gt;&lt;/div&gt;&lt;div&gt;&lt;font color=&quot;#ffff00&quot;&gt;&lt;br&gt;&lt;/font&gt;&lt;/div&gt;&lt;div&gt;&lt;font color=&quot;#ffff00&quot;&gt;&lt;br&gt;&lt;/font&gt;&lt;/div&gt;&lt;div&gt;&lt;font color=&quot;#ffff00&quot;&gt;&lt;br&gt;&lt;/font&gt;&lt;/div&gt;&lt;div&gt;&lt;font color=&quot;#ffff00&quot;&gt;&lt;br&gt;&lt;/font&gt;&lt;/div&gt;&lt;div&gt;&lt;font color=&quot;#ffff00&quot;&gt;&lt;br&gt;&lt;/font&gt;&lt;/div&gt;" style="text;html=1;strokeColor=#FFFFFF;fillColor=none;spacing=5;spacingTop=-20;whiteSpace=wrap;overflow=hidden;rounded=0;fontSize=12;fontColor=#FFFFFF;" vertex="1" parent="1">
                    <mxGeometry x="80" y="5160" width="620" height="1790" as="geometry"/>
                </mxCell>
                <mxCell id="184" style="edgeStyle=none;html=1;exitX=0;exitY=0.5;exitDx=0;exitDy=0;entryX=1;entryY=0.5;entryDx=0;entryDy=0;fontSize=17;fontColor=#FFFFFF;" edge="1" parent="1" source="174" target="170">
                    <mxGeometry relative="1" as="geometry">
                        <Array as="points">
                            <mxPoint x="600" y="4405"/>
                            <mxPoint x="600" y="4595"/>
                        </Array>
                    </mxGeometry>
                </mxCell>
                <mxCell id="195" style="edgeStyle=none;html=1;entryX=0.5;entryY=1;entryDx=0;entryDy=0;fontSize=17;fontColor=#FFFFFF;exitX=0.5;exitY=0;exitDx=0;exitDy=0;" edge="1" parent="1" source="185" target="151">
                    <mxGeometry relative="1" as="geometry">
                        <mxPoint x="390" y="4780" as="sourcePoint"/>
                    </mxGeometry>
                </mxCell>
                <mxCell id="185" value="Tags" style="shape=table;startSize=30;container=1;collapsible=1;childLayout=tableLayout;fixedRows=1;rowLines=0;fontStyle=1;align=center;resizeLast=1;" vertex="1" parent="1">
                    <mxGeometry x="300" y="4860" width="180" height="130" as="geometry"/>
                </mxCell>
                <mxCell id="186" value="" style="shape=partialRectangle;collapsible=0;dropTarget=0;pointerEvents=0;fillColor=none;top=0;left=0;bottom=1;right=0;points=[[0,0.5],[1,0.5]];portConstraint=eastwest;" vertex="1" parent="185">
                    <mxGeometry y="30" width="180" height="30" as="geometry"/>
                </mxCell>
                <mxCell id="187" value="PK" style="shape=partialRectangle;connectable=0;fillColor=none;top=0;left=0;bottom=0;right=0;fontStyle=1;overflow=hidden;" vertex="1" parent="186">
                    <mxGeometry width="30" height="30" as="geometry">
                        <mxRectangle width="30" height="30" as="alternateBounds"/>
                    </mxGeometry>
                </mxCell>
                <mxCell id="188" value="ID" style="shape=partialRectangle;connectable=0;fillColor=none;top=0;left=0;bottom=0;right=0;align=left;spacingLeft=6;fontStyle=5;overflow=hidden;" vertex="1" parent="186">
                    <mxGeometry x="30" width="150" height="30" as="geometry">
                        <mxRectangle width="150" height="30" as="alternateBounds"/>
                    </mxGeometry>
                </mxCell>
                <mxCell id="189" value="" style="shape=partialRectangle;collapsible=0;dropTarget=0;pointerEvents=0;fillColor=none;top=0;left=0;bottom=0;right=0;points=[[0,0.5],[1,0.5]];portConstraint=eastwest;" vertex="1" parent="185">
                    <mxGeometry y="60" width="180" height="30" as="geometry"/>
                </mxCell>
                <mxCell id="190" value="" style="shape=partialRectangle;connectable=0;fillColor=none;top=0;left=0;bottom=0;right=0;editable=1;overflow=hidden;" vertex="1" parent="189">
                    <mxGeometry width="30" height="30" as="geometry">
                        <mxRectangle width="30" height="30" as="alternateBounds"/>
                    </mxGeometry>
                </mxCell>
                <mxCell id="191" value="name" style="shape=partialRectangle;connectable=0;fillColor=none;top=0;left=0;bottom=0;right=0;align=left;spacingLeft=6;overflow=hidden;" vertex="1" parent="189">
                    <mxGeometry x="30" width="150" height="30" as="geometry">
                        <mxRectangle width="150" height="30" as="alternateBounds"/>
                    </mxGeometry>
                </mxCell>
                <mxCell id="192" value="" style="shape=partialRectangle;collapsible=0;dropTarget=0;pointerEvents=0;fillColor=none;top=0;left=0;bottom=0;right=0;points=[[0,0.5],[1,0.5]];portConstraint=eastwest;" vertex="1" parent="185">
                    <mxGeometry y="90" width="180" height="30" as="geometry"/>
                </mxCell>
                <mxCell id="193" value="" style="shape=partialRectangle;connectable=0;fillColor=none;top=0;left=0;bottom=0;right=0;editable=1;overflow=hidden;" vertex="1" parent="192">
                    <mxGeometry width="30" height="30" as="geometry">
                        <mxRectangle width="30" height="30" as="alternateBounds"/>
                    </mxGeometry>
                </mxCell>
                <mxCell id="194" value="slug" style="shape=partialRectangle;connectable=0;fillColor=none;top=0;left=0;bottom=0;right=0;align=left;spacingLeft=6;overflow=hidden;" vertex="1" parent="192">
                    <mxGeometry x="30" width="150" height="30" as="geometry">
                        <mxRectangle width="150" height="30" as="alternateBounds"/>
                    </mxGeometry>
                </mxCell>
                <mxCell id="196" value="N" style="text;html=1;align=center;verticalAlign=middle;resizable=0;points=[];autosize=1;strokeColor=none;fillColor=none;fontSize=17;fontColor=#FFFFFF;" vertex="1" parent="1">
                    <mxGeometry x="395" y="4625" width="30" height="30" as="geometry"/>
                </mxCell>
                <mxCell id="197" value="N" style="text;html=1;align=center;verticalAlign=middle;resizable=0;points=[];autosize=1;strokeColor=none;fillColor=none;fontSize=17;fontColor=#FFFFFF;" vertex="1" parent="1">
                    <mxGeometry x="399" y="4820" width="30" height="30" as="geometry"/>
                </mxCell>
                <mxCell id="198" value="car_tag" style="shape=table;startSize=30;container=1;collapsible=1;childLayout=tableLayout;fixedRows=1;rowLines=0;fontStyle=1;align=center;resizeLast=1;" vertex="1" parent="1">
                    <mxGeometry x="390" y="4676" width="180" height="124" as="geometry"/>
                </mxCell>
                <mxCell id="199" value="" style="shape=partialRectangle;collapsible=0;dropTarget=0;pointerEvents=0;fillColor=none;top=0;left=0;bottom=1;right=0;points=[[0,0.5],[1,0.5]];portConstraint=eastwest;" vertex="1" parent="198">
                    <mxGeometry y="30" width="180" height="30" as="geometry"/>
                </mxCell>
                <mxCell id="200" value="PK" style="shape=partialRectangle;connectable=0;fillColor=none;top=0;left=0;bottom=0;right=0;fontStyle=1;overflow=hidden;" vertex="1" parent="199">
                    <mxGeometry width="30" height="30" as="geometry">
                        <mxRectangle width="30" height="30" as="alternateBounds"/>
                    </mxGeometry>
                </mxCell>
                <mxCell id="201" value="ID" style="shape=partialRectangle;connectable=0;fillColor=none;top=0;left=0;bottom=0;right=0;align=left;spacingLeft=6;fontStyle=5;overflow=hidden;" vertex="1" parent="199">
                    <mxGeometry x="30" width="150" height="30" as="geometry">
                        <mxRectangle width="150" height="30" as="alternateBounds"/>
                    </mxGeometry>
                </mxCell>
                <mxCell id="202" value="" style="shape=partialRectangle;collapsible=0;dropTarget=0;pointerEvents=0;fillColor=none;top=0;left=0;bottom=0;right=0;points=[[0,0.5],[1,0.5]];portConstraint=eastwest;" vertex="1" parent="198">
                    <mxGeometry y="60" width="180" height="24" as="geometry"/>
                </mxCell>
                <mxCell id="203" value="FK" style="shape=partialRectangle;connectable=0;fillColor=none;top=0;left=0;bottom=0;right=0;editable=1;overflow=hidden;" vertex="1" parent="202">
                    <mxGeometry width="30" height="24" as="geometry">
                        <mxRectangle width="30" height="24" as="alternateBounds"/>
                    </mxGeometry>
                </mxCell>
                <mxCell id="204" value="car_id" style="shape=partialRectangle;connectable=0;fillColor=none;top=0;left=0;bottom=0;right=0;align=left;spacingLeft=6;overflow=hidden;" vertex="1" parent="202">
                    <mxGeometry x="30" width="150" height="24" as="geometry">
                        <mxRectangle width="150" height="24" as="alternateBounds"/>
                    </mxGeometry>
                </mxCell>
                <mxCell id="205" value="" style="shape=partialRectangle;collapsible=0;dropTarget=0;pointerEvents=0;fillColor=none;top=0;left=0;bottom=0;right=0;points=[[0,0.5],[1,0.5]];portConstraint=eastwest;" vertex="1" parent="198">
                    <mxGeometry y="84" width="180" height="30" as="geometry"/>
                </mxCell>
                <mxCell id="206" value="FK" style="shape=partialRectangle;connectable=0;fillColor=none;top=0;left=0;bottom=0;right=0;editable=1;overflow=hidden;" vertex="1" parent="205">
                    <mxGeometry width="30" height="30" as="geometry">
                        <mxRectangle width="30" height="30" as="alternateBounds"/>
                    </mxGeometry>
                </mxCell>
                <mxCell id="207" value="tag_id" style="shape=partialRectangle;connectable=0;fillColor=none;top=0;left=0;bottom=0;right=0;align=left;spacingLeft=6;overflow=hidden;" vertex="1" parent="205">
                    <mxGeometry x="30" width="150" height="30" as="geometry">
                        <mxRectangle width="150" height="30" as="alternateBounds"/>
                    </mxGeometry>
                </mxCell>
                <mxCell id="208" value="tabella ponte" style="text;html=1;align=center;verticalAlign=middle;resizable=0;points=[];autosize=1;strokeColor=none;fillColor=none;fontSize=17;fontColor=#FFFFFF;" vertex="1" parent="1">
                    <mxGeometry x="590" y="4726" width="110" height="30" as="geometry"/>
                </mxCell>
            </root>
        </mxGraphModel>
    </diagram>
    <diagram id="BvBdxhd0rVTqoUJPIA4A" name="Page-2">
        <mxGraphModel dx="819" dy="464" grid="1" gridSize="10" guides="1" tooltips="1" connect="1" arrows="1" fold="1" page="1" pageScale="1" pageWidth="827" pageHeight="1169" math="0" shadow="0">
            <root>
                <mxCell id="dGOpuBiseX3lURQI40ha-0"/>
                <mxCell id="dGOpuBiseX3lURQI40ha-1" parent="dGOpuBiseX3lURQI40ha-0"/>
            </root>
        </mxGraphModel>
    </diagram>
</mxfile>